<?xml version="1.0" encoding="utf-8"?>
<!-- Generator: Adobe Illustrator 24.3.0, SVG Export Plug-In . SVG Version: 6.00 Build 0)  -->
<svg version="1.1" id="Layer_1" xmlns="http://www.w3.org/2000/svg" xmlns:xlink="http://www.w3.org/1999/xlink" x="0px" y="0px"
	 viewBox="0 0 1187 247.9" style="enable-background:new 0 0 1187 247.9;" xml:space="preserve">
<style type="text/css">
	.st0{clip-path:url(#SVGID_2_);}
	.st1{fill:#52C9DD;}
	.st2{fill:url(#SVGID_3_);}
	.st3{fill:#56D856;}
	.st4{opacity:0.6;fill:#FFFFFF;}
	.st5{fill:none;stroke:#370379;stroke-width:2.4922;stroke-linecap:round;stroke-linejoin:round;stroke-miterlimit:10;}
	.st6{fill:#370379;}
	.st7{fill:#35B52A;}
	.st8{opacity:0.3;fill:#370379;}
	.st9{opacity:0.6;}
	.st10{fill:#FFFFFF;}
	.st11{fill:#38A532;}
	.st12{opacity:0.2;fill:#370379;}
	.st13{fill:#A0A09F;}
	.st14{opacity:0.7;fill:#FFFFFF;}
	.st15{fill:#E52E2E;}
	.st16{opacity:0.3;fill:#FFFFFF;}
	.st17{fill:#F28705;}
	.st18{fill:#43BAA7;}
	.st19{fill:#F2AF27;}
	.st20{fill:none;stroke:#370379;stroke-width:2.1362;stroke-linecap:round;stroke-linejoin:round;stroke-miterlimit:10;}
	.st21{opacity:0.7;}
	.st22{fill:#EFD03A;}
	.st23{fill:#41BAAB;}
	.st24{fill:#6665FF;}
	.st25{fill:#FF9416;}
	.st26{fill:none;stroke:#F1F2F2;stroke-width:2.1362;stroke-linecap:round;stroke-linejoin:round;stroke-miterlimit:10;}
	.st27{fill:#9A7AC5;}
	.st28{fill:#F44040;}
	.st29{fill:#23262B;}
	.st30{fill:#F9911E;}
	.st31{opacity:0.3;fill:#23262B;}
	.st32{fill:#797A75;}
	.st33{opacity:0.3;fill:#404349;}
	.st34{opacity:0.4;fill:#FFFFFF;}
	.st35{fill:none;stroke:#370379;stroke-width:1.4241;stroke-linecap:round;stroke-linejoin:round;stroke-miterlimit:10;}
	.st36{fill:#F3535F;}
	.st37{opacity:0.73;fill:#52C9DD;}
	.st38{fill:none;stroke:#370379;stroke-width:1.7801;stroke-linecap:round;stroke-linejoin:round;stroke-miterlimit:10;}
	.st39{fill:#45D339;}
	.st40{fill:#81FF73;}
	.st41{fill:none;stroke:#370379;stroke-width:0.9089;stroke-linecap:round;stroke-linejoin:round;stroke-miterlimit:10;}
	.st42{fill:#A356CC;}
	.st43{opacity:0.35;fill:#FFFFFF;}
	.st44{fill:#C8C8C8;}
	.st45{fill:#313131;}
	.st46{fill:#0C0C0C;}
	.st47{fill:#8D8D8D;}
	.st48{fill:#363636;}
	.st49{fill:#393938;}
	.st50{opacity:0.28;fill:url(#SVGID_4_);}
	.st51{opacity:0.28;fill:url(#SVGID_5_);}
	.st52{opacity:0.28;fill:url(#SVGID_6_);}
	.st53{opacity:0.28;fill:url(#SVGID_7_);}
	.st54{clip-path:url(#SVGID_2_);fill:none;}
</style>
<g>
	<defs>
		<rect id="SVGID_1_" y="0.2" width="1187" height="247.8"/>
	</defs>
	<clipPath id="SVGID_2_">
		<use xlink:href="#SVGID_1_"  style="overflow:visible;"/>
	</clipPath>
	<g class="st0">
		<g>
			<rect y="0.2" class="st1" width="1187" height="247.8"/>
			<linearGradient id="SVGID_3_" gradientUnits="userSpaceOnUse" x1="590.8477" y1="272.0759" x2="593.9522" y2="50.1035">
				<stop  offset="0" style="stop-color:#FEFFE0"/>
				<stop  offset="1" style="stop-color:#9FD8F6"/>
			</linearGradient>
			<rect y="0.2" class="st2" width="1187" height="164.5"/>
			<path class="st3" d="M35.8,115.7c174.7-20.9,354.9-15.4,538,4.4c59,4.2,117.8,0.8,176.5-8.8c102.9-14.7,199.3,13.6,346.4,12.6
				c0,0,56.4,1.4,134.7-8.1l16.5,31.4l-1231.7,4"/>
			<path class="st4" d="M1248,147.1h-1.1l-14.6-27.8c-78.3,9.5-134.7,8.1-134.7,8.1c-147.1,1-243.5-27.3-346.4-12.6
				c-58.7,9.6-117.5,13.1-176.5,8.8c-183.1-19.8-363.2-25.2-538-4.4l-17.5,31.8l-2.9,0l19.5-35.4c174.7-20.9,354.9-15.4,538,4.4
				c59,4.2,117.8,0.8,176.5-8.8c102.9-14.7,199.3,13.6,346.4,12.6c0,0,56.4,1.4,134.7-8.1L1248,147.1z"/>
			<path class="st5" d="M39.3,115.7c174.2-20.8,353.9-15.4,536.4,4.4c58.8,4.2,117.5,0.8,176-8.8c102.6-14.7,198.7,13.5,345.4,12.5
				c0,0,23.5,0.6,61.1-1.6"/>
			<g>
				<path class="st6" d="M548.3,116c18.3,3,36.6,5.8,55,8.2c9.2,1.2,18.4,2.4,27.6,3.5c9.2,1.1,18.4,2,27.6,2.9
					c-9.2-0.7-18.5-1.4-27.7-2.3c-9.2-0.9-18.5-1.8-27.7-2.9c-18.4-2.1-36.8-4.4-55.2-7c-0.7-0.1-1.2-0.7-1.1-1.4
					S547.6,115.9,548.3,116C548.3,116,548.3,116,548.3,116L548.3,116z"/>
			</g>
			<g>
				<g>
					<path class="st7" d="M1192.3,135.8h-121.1c-5.3-16.4,9.1-33.1,24.9-30.1c0-10.6,19.1-19.2,32.9-5.4
						c-4.2-13.8,5.5-20.9,15.1-19.2c-5.1-4.6-1-13.6,6.4-12.1c3.6-15.1,24.9-13.9,28.8-2.2c3.7-2.6,8.7-0.3,8.7,4.5L1192.3,135.8z"
						/>
					<path class="st8" d="M1189,84.6c-8.3-11.1-26.9-0.6-19.2,16.6c-6.2-4.4-13.8-0.7-12.1,4.7c-11.2-7.9-25.1,0.1-26.5,10
						c-2.1-3.5-7.5-0.6-8.2,2.6c-13.8-12.2-38.9,0-31.8,17.1h101.1L1189,84.6z"/>
				</g>
				<g class="st9">
					<path class="st10" d="M1143.4,81c0.4,1,1,2,1.9,2.8c-9.6-1.6-19.3,5.4-15.1,19.2c-13.9-13.7-32.9-5.1-32.9,5.4
						c-14.9-2.8-28.6,11.9-25.6,27.4h-0.5c-5.3-16.4,9.1-33.1,24.9-30.1c0-10.6,19.1-19.2,32.9-5.4
						C1124.9,86.8,1134.1,79.8,1143.4,81z"/>
					<path class="st10" d="M1188,70.3c-1.7-2.1-4.9-2.6-7.4-0.8c-3.9-11.7-25.2-12.9-28.8,2.2c-5.7-1.1-9.4,4-8.5,8.4
						c-3.6-4.8,0.5-12.5,7.3-11.1c3.6-15.1,24.9-13.9,28.8-2.2C1182.8,64.3,1187.3,66.2,1188,70.3z"/>
				</g>
				<g class="st9">
					<path class="st10" d="M1144.1,81.1c-0.2,0-0.4-0.1-0.7-0.1c-0.1-0.3-0.2-0.6-0.2-0.9C1143.5,80.4,1143.8,80.8,1144.1,81.1z"/>
				</g>
				<path class="st5" d="M1188.1,71.3c0-6-7.9-8.2-11.2-1.5"/>
				<path class="st5" d="M1179.3,66.8c-3.9-11.7-25.2-12.9-28.8,2.2c-7.4-1.4-11.5,7.5-6.4,12.1c-9.6-1.6-19.3,5.4-15.1,19.2
					c-13.9-13.8-32.9-5.2-32.9,5.4c-15.8-3-30.2,13.7-24.9,30.1"/>
			</g>
			<g>
				<g>
					<path class="st11" d="M77.3,135.9H-2V97.2c1.9-2.4,6.2-1.9,6.5,1.8c6-9,25.2-6.5,25.2,6.4c2.8-1.6,7.1,1.3,4.8,5.8
						c3.1-1.1,7,0.4,9.1,3.1c5.2-7.8,19.3-5.7,19.3,4.5c3.4-2.2,9-0.9,7.6,4.8C79.3,121.9,82.6,131.5,77.3,135.9z"/>
				</g>
				<g class="st9">
					<path class="st10" d="M35.1,109.7c-0.6-2.4-3.3-3.5-5.3-2.4c0-12.8-19.2-15.4-25.2-6.4c-0.3-3.7-4.6-4.2-6.5-1.8v-1.9
						c1.9-2.4,6.2-1.9,6.5,1.8c6-9,25.2-6.5,25.2,6.4C32.2,104,35.8,106.1,35.1,109.7z"/>
					<path class="st10" d="M70.7,123c-0.6-3.5-5-4.1-7.8-2.3c0-10.2-14.1-12.3-19.3-4.5c-2.1-2.7-6.1-4.2-9.1-3.1
						c0.4-0.7,0.6-1.4,0.6-2c3-0.7,6.5,0.8,8.5,3.3c5.2-7.8,19.3-5.7,19.3,4.5C66.2,116.8,71.5,117.9,70.7,123z"/>
					<path class="st10" d="M79.8,131.3c-0.5-3.7-3.8-6.9-9.2-5.8c0.2-0.7,0.2-1.3,0.2-1.9C77,122.5,80.4,127.1,79.8,131.3z"/>
				</g>
				<g>
					<path class="st10" d="M35.1,109.7c0.1,0.4,0.1,0.9,0.1,1.4c-0.2,0.1-0.4,0.1-0.6,0.2C34.8,110.7,35,110.2,35.1,109.7z"/>
					<path class="st10" d="M70.8,123.6c-0.1,0-0.1,0-0.2,0c0.1-0.2,0.1-0.4,0.1-0.6C70.8,123.2,70.8,123.4,70.8,123.6z"/>
				</g>
				<path class="st12" d="M-0.7,114.8c1.9-5.9,9-4.4,9,1.1c3.4-2.2,5.2,2,2.5,3.5c2.8-0.6,4.8-0.2,5.7,1.7c2.1-2.9,4.8-4.5,9-1.7
					c4.5-1.8,7.9,0.5,7.6,5.1c1.7-3.6,7.1-3.4,7.1,0.3c4.5-0.3,7.4,1.3,8.1,5.2l4.4,1.2c-0.6-4.3,3.6-9.7,8.6-3.9
					c3.1-1.8,5.4,0,4.3,2.7c4.4-2.5,10.2,0.7,8.4,5.3H-3.3l-2.2-19.1"/>
				<path class="st5" d="M-2,97.2c1.9-2.4,6.2-1.9,6.5,1.8c6-9,25.2-6.5,25.2,6.4c2.8-1.6,7.1,1.3,4.8,5.8
					c5.4-1.8,13.5,4.1,9.6,10.8"/>
				<path class="st5" d="M43.7,114.4c5.2-7.8,19.3-5.7,19.3,4.5c3.4-2.2,9-0.9,7.6,4.8c8.7-1.8,12,7.8,6.6,12.2"/>
				<path class="st5" d="M9.6,122.8c0.7-5,6.5-3.9,6.9-1.6c1.3-4.7,7.9-5.2,9.6-0.6"/>
				<path class="st5" d="M38.7,126.1c3.7-2.4,8.8-1,9.8,4.8c3.5-2,6.7,2.8,2.3,5.1"/>
			</g>
			<g>
				<polygon class="st13" points="1200.9,135.8 0,135.8 0,187.7 1199.1,187.7 				"/>
				<polygon class="st14" points="1200.9,135.8 1200.8,138.6 0,138.6 0,135.8 				"/>
				<rect x="-9.5" y="182.1" class="st13" width="1213.9" height="11.1"/>
				<rect x="-9.5" y="182.1" class="st5" width="1232.8" height="11.1"/>
				<polyline class="st5" points="325.5,193.2 325.5,182.1 421.8,135.8 				"/>
				<polyline class="st5" points="438.7,193.2 438.7,182.1 503.8,135.8 				"/>
				<polyline class="st5" points="212.3,193.2 212.3,182.1 344.6,135.8 				"/>
				<polyline class="st5" points="90.1,193.2 90.1,182.1 236.5,135.8 				"/>
				<polyline class="st5" points="-26.6,193.2 -26.6,182.1 119.8,135.8 				"/>
				<polyline class="st5" points="1058.1,193.2 1058.1,182.1 911.6,135.8 				"/>
				<polyline class="st5" points="1189.1,193.2 1189.1,182.1 1038,135.8 				"/>
				<polyline class="st5" points="552.3,193.2 552.3,182.1 552.3,135.8 				"/>
				<polyline class="st5" points="665.5,193.2 665.5,182.1 598.8,135.8 				"/>
				<polyline class="st5" points="778.7,193.2 778.7,182.1 683.6,135.8 				"/>
				<polyline class="st5" points="803.8,135.8 909.2,182.1 909.2,192.4 				"/>
				<line class="st5" x1="1200.5" y1="135.8" x2="-16.1" y2="135.8"/>
			</g>
			<ellipse class="st8" cx="746.3" cy="164.7" rx="48.7" ry="8.9"/>
			<ellipse class="st8" cx="957.5" cy="164.7" rx="91.9" ry="15.1"/>
		</g>
		<g>
			<ellipse class="st8" cx="589.7" cy="212.6" rx="69.6" ry="26"/>
			<ellipse class="st8" cx="753.1" cy="213.9" rx="28.5" ry="11.4"/>
			<ellipse class="st8" cx="414.2" cy="222" rx="28.5" ry="11.4"/>
			<ellipse class="st8" cx="311.6" cy="208.4" rx="28.5" ry="11.4"/>
		</g>
		<g>
			<path class="st1" d="M633.8,206c3,23.5-29.5,34.4-58.9,34.4c-29.5,0-64-10.9-58.9-34.4l16.2-7.4H617L633.8,206z"/>
			<path class="st10" d="M611.4,207.2c0,0,14.1,9.9,4.6,24.7c0,0,19.6-7.6,17.7-25.9l-17.9-4.5"/>
			<path class="st10" d="M562,212.6c-5.6,8.3-5.6,21.3,0,27.1c8.6,0.9,17.1,0.9,25.6,0c5.6-5.8,5.6-18.8,0-27.1"/>
			<path class="st10" d="M536.9,207.2c0,0-14.1,9.9-4.6,24.7c0,0-19.8-10.1-16.6-24.3c3.1-14.2,21.3-4.4,21.3-4.4"/>
			<path class="st15" d="M536.9,207.2c0,0-14.1,9.9-4.6,24.7c9.1,5.5,19.1,7.7,29.7,7.8c-5.6-5.8-5.6-18.8,0-27.1"/>
			<path class="st8" d="M574.8,240.4c-29.5,0-64-10.9-58.9-34.4l2.1-0.9c2.2,18.7,30.9,27.5,55.8,27.5c25.3,0,53.1-9.1,55.5-28.6
				l4.6,2C636.8,229.5,604.3,240.4,574.8,240.4z"/>
			<path class="st5" d="M633.8,206c3,23.5-29.5,34.4-58.9,34.4c-29.5,0-64-10.9-58.9-34.4l16.2-7.4H617L633.8,206z"/>
			<path class="st5" d="M536.9,207.2c0,0-14.1,9.9-4.6,24.7"/>
			<path class="st5" d="M611.4,207.2c0,0,14.1,9.9,4.6,24.7"/>
			<path class="st16" d="M538.8,219.2L538.8,219.2c-0.2,2.3,1.3,4.3,3.5,4.8c24.1,4.9,47.2,5.6,68.1-2.2c1.8-0.7,2.8-2.7,2.1-4.6
				l0,0c-0.6-1.7-2.4-2.7-4.1-2.3c-21.6,4.6-43.1,4.8-64.3,0.4C541.5,214.7,539,216.5,538.8,219.2z"/>
			<path class="st5" d="M562,212.6c-5.6,8.3-5.6,21.3,0,27.1"/>
			<path class="st5" d="M587.6,212.6c5.6,8.3,5.6,21.3,0,27.1"/>
			<g>
				<path class="st17" d="M633.5,194.7c0,0-0.1,0.2-0.3,0.6c-0.8,1.4-2.8,4.9-4.7,8.4l-1.8,3.2c-0.2,0.3-0.3,0.6-0.5,0.9
					c0,0-6.2,0.2-10.7-4c-0.9-0.8-1.7-1.8-2.4-2.9c-4.3-7.2,4.2-13.9,4.2-13.9s2.8-2.7,7.3,0.3S633.5,194.7,633.5,194.7z"/>
				<path class="st17" d="M534.6,200.9c-0.7,1.2-1.6,2.2-2.5,3c-4.5,4.1-10.6,3.9-10.6,3.9c-0.2-0.3-0.3-0.6-0.5-0.9l-1.6-2.9
					l-1.2-2.1c-1.6-2.8-3.1-5.4-3.7-6.6c-0.2-0.4-0.3-0.6-0.3-0.6s4.5-4.5,9-7.5c4.5-2.9,7.3-0.3,7.3-0.3S538.9,193.7,534.6,200.9z"
					/>
				<path class="st18" d="M521,206.8c-5,1.7-8.8,0.3-9.8-2.6c-0.9-2.3,0-5.6,3.3-9c0,0,0,0,0,0l3.7,6.6l1.2,2.1L521,206.8z"/>
				<path class="st5" d="M514.5,195.3c-7.5,7.5-2.6,14.7,6.5,11.6"/>
				<path class="st5" d="M514.1,194.7c0,0,4.4,7.8,7.4,13.1c0,0,8.8,0.3,13.1-6.9c4.3-7.2-4.2-13.9-4.2-13.9s-2.8-2.7-7.3,0.3
					S514.1,194.7,514.1,194.7z"/>
				<polyline class="st11" points="520.5,185.8 519.9,180.3 516.8,183.1 513.8,181.4 513.3,185 509.9,186.5 514.6,189.4 				"/>
				<path class="st19" d="M514,191.3c0.9-4.5,4.4-5.8,7.5-5.4c1.9,0.3,3.5,1.3,4.7,2.8c4.6,6.2-6.7,13.7-11.1,7.6
					C513.9,194.9,513.6,193,514,191.3z"/>
				<path class="st8" d="M515,196.3c-0.3-0.4-0.5-0.8-0.7-1.2c4.7,2.9,12.6-2.7,10.3-7.9c0.6,0.4,1.1,0.9,1.6,1.5
					C530.8,194.9,519.4,202.4,515,196.3z"/>
				<path class="st14" d="M525.3,187.8c-0.7-0.4-1.5-0.6-2.3-0.7c-1.7-0.2-3.5,0-5,1.1c0.7,1.6-0.5,3-2,2.7c-0.2,0.5-0.3,1-0.5,1.5
					c-0.3,1.8-0.1,3.6,1,5c0.1,0.2,0.3,0.4,0.4,0.5c-0.8-0.4-1.5-0.9-2.1-1.7c-1.1-1.4-1.3-3.3-1-5c0.9-4.5,4.4-5.8,7.5-5.4
					C522.9,186.1,524.3,186.8,525.3,187.8z"/>
				<path class="st20" d="M514,191.3c0.9-4.5,4.4-5.8,7.5-5.4c1.9,0.3,3.5,1.3,4.7,2.8c4.6,6.2-6.7,13.7-11.1,7.6
					C513.9,194.9,513.6,193,514,191.3z"/>
				<polyline class="st20" points="520.5,185.8 519.9,180.3 516.8,183.1 513.8,181.4 513.3,185 509.9,186.5 514.6,189.4 				"/>
				<path class="st18" d="M626.6,206.8l1.8-3.2l4.7-8.4c0,0,0,0,0,0c1.1,1.1,1.9,2.2,2.5,3.3h0C639.1,204.7,634.3,209.5,626.6,206.8
					z"/>
				<path class="st5" d="M633.1,195.3c7.5,7.5,2.6,14.7-6.5,11.6"/>
				<path class="st5" d="M633.5,194.7c0,0-4.4,7.8-7.4,13.1c0,0-8.8,0.3-13.1-6.9c-4.3-7.2,4.2-13.9,4.2-13.9s2.8-2.7,7.3,0.3
					S633.5,194.7,633.5,194.7z"/>
				<path class="st18" d="M622.7,170l-5.5-0.4c2.9,8.7,3.1,17.4,0.8,26.1c-0.7,2.7-1.8,5.2-3.1,7.7l-0.7,1.2
					c-3.8,6-20.3,8.6-37.4,8.6c-17.5,0-35.7-2.7-42-7.2h0c-0.6-0.4-1.1-0.9-1.5-1.3c-2.3-4.2-4.1-8.8-4.8-13.5
					c-1.1-7.2-0.6-14.4,1.8-21.5l-5.5,0.4c1.7-1.8,3.7-3.3,5.9-4.3L524,160l10.5,2.6c5.4-11.1,14.7-18.4,27.5-22.3
					c1.1-2.3,2.5-4.5,4.2-6.3l1,4.7c4.6-4.9,9.5-8.8,14.7-11.2c-2,3.8-3.4,7.6-4.4,11.4c5.4-2.7,10.5-2.6,10.5-2.6l-1.9,4
					c11.5,4.1,21.7,10.1,27.1,22.3l10.5-2.6l-6.8,5.8C619,166.8,620.9,168.2,622.7,170z"/>
				<g class="st21">
					<path class="st10" d="M529.8,166.2l2,1.7c-1.1,0.5-2.1,1.1-3.1,1.9l-3.8,0.3C526.3,168.5,528,167.2,529.8,166.2z"/>
					<path class="st10" d="M566.1,134l0.6,2.7c-1.5,1.7-2.7,3.6-3.7,5.8c-12.8,3.9-22,11.2-27.5,22.3l-8.3-2.1L524,160l10.5,2.6
						c5.4-11.1,14.7-18.4,27.5-22.3C563,137.9,564.4,135.8,566.1,134z"/>
					<path class="st10" d="M580,131.1c-4.2,2.4-8.1,5.8-11.9,9.8l-0.6-2.7c4.5-4.6,9.2-8.4,14.2-10.7
						C581.1,128.7,580.6,129.9,580,131.1z"/>
					<path class="st10" d="M587.9,136.2l-1.1,2.3c-2,0.2-5.1,0.9-8.4,2.5c0.2-1,0.5-2,0.8-3C583.9,136.2,587.9,136.2,587.9,136.2z"
						/>
				</g>
				<path class="st5" d="M618,195.8c2.3-8.8,2-17.5-0.8-26.1l5.5,0.4c-1.7-1.8-3.7-3.3-5.9-4.3l6.8-5.8l-10.5,2.6
					c-5.3-12.2-15.5-18.2-27-22.3l1.9-4c0,0-5.1-0.1-10.5,2.6c0.9-3.9,2.4-7.7,4.4-11.4c-5.2,2.4-10,6.3-14.7,11.2l-1-4.7
					c-1.7,1.8-3.1,3.9-4.2,6.3c-12.8,3.9-22,11.2-27.5,22.3L524,160l6.8,5.8c-2.2,1.1-4.2,2.5-5.9,4.3l5.5-0.4
					c-2.4,7.1-2.9,14.3-1.8,21.5c0.8,4.8,2.5,9.3,4.8,13.5l0,0c8.2,10.1,72.8,12.6,80.9,0l0.7-1.2C616.2,201,617.3,198.4,618,195.8z
					"/>
				<path class="st22" d="M613.1,162.6c17.1-8.4,7.4-33-3.4-36c6.3,12.3,1.2,18.8-7.9,23.3C599,155.1,603,165,613.1,162.6z"/>
				<path class="st8" d="M613,162.6c-4.7,1.1-8-0.4-10-2.9c1.7,0.7,3.7,0.9,6.1,0.5c13.7-5.9,11.6-22.4,5-31.1
					C622.7,136.3,627.7,155.4,613,162.6z"/>
				<path class="st10" d="M603.5,150.9c-1.8,3.4-0.7,8.7,3.1,11.4c-5.2-2.1-6.9-8.5-4.9-12.4c9.1-4.5,14.2-11.1,7.9-23.3
					c1.1,0.3,2.1,0.8,3.1,1.4c-0.4-0.2-0.9-0.4-1.3-0.5C617.8,139.8,612.6,146.4,603.5,150.9z"/>
				<path class="st22" d="M540,162.6c-1.6,0.5-3.5,0.5-5.7,0c-17.1-8.4-7.4-33,3.4-36c-0.5,1-0.9,1.9-1.3,2.8
					c-4.2,10.5,0.8,16.4,9.2,20.5C547.8,154,545.8,160.9,540,162.6z"/>
				<path class="st10" d="M536.2,162.9c-0.6-0.1-1.2-0.2-1.9-0.3c-17.1-8.4-7.4-33,3.4-36c-0.3,0.6-0.6,1.3-0.9,1.9
					C527.5,134.6,521.1,155.2,536.2,162.9z"/>
				<path class="st5" d="M613.1,162.6c17.1-8.4,7.4-33-3.4-36c6.3,12.3,1.2,18.8-7.9,23.3C599,155.1,603,165,613.1,162.6z"/>
				<path class="st5" d="M534.3,162.6c-17.1-8.4-7.4-33,3.4-36c-6.3,12.3-1.2,18.8,7.9,23.3C548.3,155.1,544.4,165,534.3,162.6z"/>
				<path class="st8" d="M540,162.6c0.2-0.4,0.5-0.7,0.8-1.1c4.3-4.7,0-7.8,0-7.8c-6.8-2.7-12.5-16-5.1-24.7l0.7,0.4
					c-4.2,10.5,0.8,16.4,9.2,20.5C547.8,154,545.8,160.9,540,162.6z"/>
				<polyline class="st11" points="627.1,185.8 627.7,180.3 630.8,183.1 633.8,181.4 634.3,185 637.7,186.5 633,189.4 				"/>
				<path class="st10" d="M594.7,175.4c0,12.2-9.9,22.1-22.1,22.1s-22.1-9.9-22.1-22.1c0-1.9,0.2-3.8,0.7-5.6
					c2.4-2.9,5.9-5.1,10-6.6c6.9-2.4,15.4-2.7,22.4-0.3c4.1,1.4,7.7,3.7,10.3,6.9C594.4,171.5,594.7,173.4,594.7,175.4z"/>
				<path class="st8" d="M594.7,175.4c0,12.2-9.9,22.1-22.1,22.1c-8.6,0-16.1-4.9-19.7-12.1c4,5,10.2,8.1,17.1,8.1
					c12.2,0,22.1-9.9,22.1-22.1c0-1.3-0.1-2.7-0.4-4c0.8,0.7,1.6,1.5,2.2,2.3C594.4,171.5,594.7,173.4,594.7,175.4z"/>
				<path class="st5" d="M594.7,175.4c0,12.2-9.9,22.1-22.1,22.1s-22.1-9.9-22.1-22.1c0-1.9,0.2-3.8,0.7-5.6c2.4-2.9,5.9-5.1,10-6.6
					c6.9-2.4,15.4-2.7,22.4-0.3c4.1,1.4,7.7,3.7,10.3,6.9C594.4,171.5,594.7,173.4,594.7,175.4z"/>
				<path class="st6" d="M588.7,174.6c0,8.9-7.2,16.1-16.1,16.1s-16.1-7.2-16.1-16.1c0-4.5,1.8-8.5,4.8-11.4
					c6.9-2.4,15.4-2.7,22.4-0.3C586.8,165.8,588.7,170,588.7,174.6z"/>
				
					<ellipse transform="matrix(0.9271 -0.3749 0.3749 0.9271 -21.6768 230.2947)" class="st10" cx="581" cy="170.9" rx="4" ry="5.2"/>
				<path class="st5" d="M599.1,195.8c0,0-3.1,7.4-11.6,10.2"/>
				<path class="st5" d="M598.3,192.6c-0.2,3.4,2.3,4.7,4.4,4"/>
				<path class="st19" d="M633.6,191.3c-0.9-4.5-4.4-5.8-7.5-5.4c-1.9,0.3-3.5,1.3-4.7,2.8c-4.6,6.2,6.7,13.7,11.1,7.6
					C633.7,194.9,634,193,633.6,191.3z"/>
				<path class="st8" d="M632.7,196.3c-3.6,4.9-11.8,0.9-12.2-4.1c2.4,3.4,8.2,5.2,11.1,1.3c1-1.4,1.3-3.2,1-5
					c0.5,0.7,0.9,1.7,1.1,2.7C634,193,633.7,194.9,632.7,196.3z"/>
				<path class="st14" d="M632.9,189.1c-1.5-1.3-3.5-1.7-5.4-1.5c-0.2,0-0.5,0.1-0.7,0.1c0,1.3-1.4,2-2.7,1.4
					c-0.5,0.4-0.9,0.8-1.3,1.3c-1.4,1.9-1.3,3.9-0.4,5.6c-2-2-2.9-4.8-0.9-7.4c1.1-1.5,2.8-2.5,4.7-2.8
					C628.7,185.6,631.5,186.4,632.9,189.1z"/>
				<path class="st20" d="M633.6,191.3c-0.9-4.5-4.4-5.8-7.5-5.4c-1.9,0.3-3.5,1.3-4.7,2.8c-4.6,6.2,6.7,13.7,11.1,7.6
					C633.7,194.9,634,193,633.6,191.3z"/>
				<polyline class="st20" points="627.1,185.8 627.7,180.3 630.8,183.1 633.8,181.4 634.3,185 637.7,186.5 633,189.4 				"/>
				<path class="st8" d="M618,195.8c-0.7,2.7-1.8,5.2-3.1,7.7l-0.7,1.2c-3.8,6-20.3,8.6-37.4,8.6c-17.5,0-35.7-2.7-42-7.2
					c36.1,7.1,81,7.2,79.4-37.3l3,0.9C620.1,178.3,620.3,187,618,195.8z"/>
				<path class="st8" d="M532.1,203.9c-4.5,4.1-10.6,3.9-10.6,3.9c-0.2-0.3-0.3-0.6-0.5-0.9c-5,1.7-8.8,0.3-9.8-2.6
					c0.2,0,0.4,0,0.6,0c3,0.2,5.6,0,7.6-0.4c10.3-2,9.8-9.7,9.8-9.7l1.4,4.3L532.1,203.9z"/>
				<path class="st8" d="M626.6,206.8c-0.2,0.3-0.3,0.6-0.5,0.9c0,0-6.2,0.2-10.7-4l1.6-4.6c4.4,2.8,8.3,4.4,11.4,4.5
					c3.3,0.1,5.7-1.6,7.2-5.1h0C639.1,204.7,634.3,209.5,626.6,206.8z"/>
			</g>
		</g>
		<g>
			<path class="st23" d="M765.3,210.5c0,4.4-1.3,8.4-3.6,11.8c-9.3,5.5-25.1,5.6-34.7,0c-1-1.4-1.8-3-2.4-4.6
				c-0.8-2.3-1.3-4.7-1.3-7.2c0-11.6,9.4-21,21-21c5.4,0,10.3,2,14.1,5.4l0,0C762.6,198.7,765.3,204.3,765.3,210.5z"/>
			<path class="st14" d="M759.8,196.3c-3.6-3-8.3-4.8-13.3-4.8c-11.6,0-21,9.4-21,21c0,3.8,1,7.4,2.8,10.5c-0.4-0.2-0.9-0.5-1.3-0.7
				c-2.3-3.4-3.6-7.4-3.6-11.8c0-11.6,9.4-21,21-21C750.4,189.5,755.9,192.1,759.8,196.3z"/>
			<path class="st5" d="M765.3,210.5c0,4.4-1.3,8.4-3.6,11.8c-9.3,5.5-25.1,5.6-34.7,0c-2.3-3.4-3.6-7.4-3.6-11.8
				c0-11.6,9.4-21,21-21C755.9,189.5,765.3,198.9,765.3,210.5z"/>
			<path class="st24" d="M736.5,220.7l5.4-3.2l-3-6.5l4.5,4.9c0,0,5.1-2.6,5.1-2.7s-0.4-6.2-0.4-6.2l3.4,8.3l5.7-2.9l-6.4-15.5
				l-6.3,1.7l-0.9,10.5l-7-8.3l-5.3,2.5L736.5,220.7z"/>
			<path class="st8" d="M765.3,210.5c0,4.4-1.3,8.4-3.6,11.8c-9.3,5.5-25.1,5.6-34.7,0c-1-1.4-1.8-3-2.4-4.6
				c14.8,13.7,44-2.8,33.8-22.8C762.6,198.7,765.3,204.3,765.3,210.5z"/>
		</g>
		<path class="st18" d="M767.5,234c-0.1,0.1-0.4,0.4-0.3,0.2C767.3,234.1,767.5,234,767.5,234z"/>
		<path class="st18" d="M429.2,238.7c-0.1,0.1-0.4,0.4-0.3,0.2C429.1,238.8,429.2,238.8,429.2,238.7z"/>
		<path class="st18" d="M334,216.5c-0.1,0.1-0.4,0.4-0.3,0.2C333.9,216.6,334,216.6,334,216.5z"/>
		<g>
			<path class="st25" d="M323.1,202.8c0,4.4-1.3,8.4-3.6,11.8c-9.3,5.5-25.1,5.6-34.7,0c-1-1.4-1.8-3-2.4-4.6
				c-0.8-2.3-1.3-4.7-1.3-7.2c0-11.6,9.4-21,21-21c5.4,0,10.3,2,14.1,5.4l0,0C320.4,191,323.1,196.6,323.1,202.8z"/>
			<path class="st14" d="M317.6,188.6c-3.6-3-8.3-4.8-13.3-4.8c-11.6,0-21,9.4-21,21c0,3.8,1,7.4,2.8,10.5c-0.4-0.2-0.9-0.5-1.3-0.7
				c-2.3-3.4-3.6-7.4-3.6-11.8c0-11.6,9.4-21,21-21C308.2,181.8,313.7,184.4,317.6,188.6z"/>
			<path class="st5" d="M323.1,202.8c0,4.4-1.3,8.4-3.6,11.8c-9.3,5.5-25.1,5.6-34.7,0c-2.3-3.4-3.6-7.4-3.6-11.8
				c0-11.6,9.4-21,21-21C313.7,181.8,323.1,191.2,323.1,202.8z"/>
			<path class="st8" d="M323.1,202.8c0,4.4-1.3,8.4-3.6,11.8c-9.3,5.5-25.1,5.6-34.7,0c-1-1.4-1.8-3-2.4-4.6
				c14.8,13.7,44-2.8,33.8-22.8C320.4,191,323.1,196.6,323.1,202.8z"/>
			<path class="st10" d="M307,200.2c5-1.4,4.4-8-1-8.3l-1.3,0.1l-0.2-3.1l-2.3,0.1l0.2,3.1l-2.3,0.1l-0.2-3.1l-2.3,0.1l0.2,3.1
				l-4.6,0.3l0.1,1.9l2.6-0.2l0.9,13.8l-2.6,0.2l0.1,1.9l4.6-0.3l0.2,3l2.3-0.1l-0.2-3l2.3-0.1l0.2,3l2.3-0.1l-0.2-3l1-0.1
				C313.8,208.6,312.7,200.7,307,200.2z M303,193.9c1-0.1,2,0.4,2.6,1.2c0.6,0.9,0.6,1.9,0.1,2.8c-0.5,0.9-1.4,1.4-2.4,1.5l-2.8,0.2
				l-0.3-5.5L303,193.9z M304.3,207.7l-3.2,0.2l-0.4-6l3.7-0.2c1-0.1,2,0.4,2.5,1.3c0,0.1,0.1,0.1,0.1,0.2
				C308,205.1,306.5,207.6,304.3,207.7z"/>
		</g>
		<g>
			<path class="st26" d="M496.9,217.9c0-5.4,3.4-10.4,9.3-14.8"/>
			<path class="st26" d="M557.9,248.1c-24.6-2-44.9-8.8-54.7-17.9"/>
			<path class="st26" d="M633.5,236.2c-10.7,5.9-26.5,10.2-44.8,11.8"/>
			<path class="st26" d="M642.3,206c3.8,3.7,6,7.7,6,12c0,2.1-0.5,4.2-1.5,6.2"/>
			<path class="st26" d="M650.9,196.1c10.5,6.2,16.7,13.7,16.7,21.9c0,3.3-1,6.6-3,9.7"/>
			<path class="st26" d="M478.8,224.2c-0.8-2-1.3-4.1-1.3-6.3c0-7.8,5.7-15.1,15.6-21.2"/>
			<path class="st26" d="M731.4,234c-4.4-1.3-8.1-3.3-10.8-5.8c-2.8-2.6-4.4-5.7-4.4-9c0-1.8,0.5-3.5,1.3-5.1"/>
			<path class="st26" d="M748.7,235.4c-1.6,0.2-3.2,0.3-4.9,0.3c-1.1,0-2.2,0-3.3-0.1"/>
			<path class="st26" d="M769.8,224.8c-2.2,3.7-6.6,6.8-12.3,8.7"/>
			<path class="st26" d="M393.1,238.7c-4.4-1.3-8.1-3.3-10.8-5.8c-2.8-2.6-4.4-5.7-4.4-9c0-1.8,0.5-3.5,1.3-5.1"/>
			<path class="st26" d="M410.4,240.2c-1.6,0.2-3.2,0.3-4.9,0.3c-1.1,0-2.2,0-3.3-0.1"/>
			<path class="st26" d="M431.5,229.6c-2.2,3.7-6.6,6.8-12.3,8.7"/>
			<path class="st26" d="M289.1,226.2c-4.4-1.3-8.1-3.3-10.8-5.8c-2.8-2.6-4.4-5.7-4.4-9c0-1.8,0.5-3.5,1.3-5.1"/>
			<path class="st26" d="M306.5,227.7c-1.6,0.2-3.2,0.3-4.9,0.3c-1.1,0-2.2,0-3.3-0.1"/>
			<path class="st26" d="M327.6,217.1c-2.2,3.7-6.6,6.8-12.3,8.7"/>
			<path class="st26" d="M199.5,214.7c-4.3,0-4.3-4.3-8.6-4.3c-4.3,0-4.3,4.3-8.6,4.3c-4.3,0-4.3-4.3-8.6-4.3
				c-4.3,0-4.3,4.3-8.6,4.3c-4.3,0-4.3-4.3-8.6-4.3c-4.3,0-4.3,4.3-8.6,4.3"/>
			<path class="st26" d="M94.8,224.3c-4.3,0-4.3-4.3-8.6-4.3c-4.3,0-4.3,4.3-8.6,4.3c-4.3,0-4.3-4.3-8.6-4.3c-4.3,0-4.3,4.3-8.6,4.3
				c-4.3,0-4.3-4.3-8.6-4.3s-4.3,4.3-8.6,4.3"/>
			<path class="st26" d="M971,217.2c-4.3,0-4.3-4.3-8.6-4.3c-4.3,0-4.3,4.3-8.6,4.3c-4.3,0-4.3-4.3-8.6-4.3c-4.3,0-4.3,4.3-8.6,4.3
				c-4.3,0-4.3-4.3-8.6-4.3c-4.3,0-4.3,4.3-8.6,4.3"/>
			<path class="st26" d="M258.2,229.8c-4.3,0-4.3,4.3-8.6,4.3c-4.3,0-4.3-4.3-8.6-4.3c-4.3,0-4.3,4.3-8.6,4.3
				c-4.3,0-4.3-4.3-8.6-4.3c-4.3,0-4.3,4.3-8.6,4.3"/>
			<path class="st26" d="M861.7,219.3c-4.3,0-4.3,4.3-8.6,4.3c-4.3,0-4.3-4.3-8.6-4.3c-4.3,0-4.3,4.3-8.6,4.3
				c-4.3,0-4.3-4.3-8.6-4.3c-4.3,0-4.3,4.3-8.6,4.3"/>
			<path class="st26" d="M1109.2,229.3c-4.3,0-4.3,4.3-8.6,4.3c-4.3,0-4.3-4.3-8.6-4.3c-4.3,0-4.3,4.3-8.6,4.3
				c-4.3,0-4.3-4.3-8.6-4.3c-4.3,0-4.3,4.3-8.6,4.3"/>
		</g>
		<g>
			<path class="st27" d="M709.6,96.2c0,0-7.8,13.1-12.1,24c-0.7,1.8-1.5,3.3-2.3,4.4c-3.9,5.6-8.3,3.6-8.3,3.6
				c-1.7-0.4-3-1.2-3.9-2.5c0,0,0,0,0,0c-2.7-3.9-1.2-11.3,2.7-18c0,0,0.3-1.2,9.8-9.2c9.5-7.9,11.8-15.4,11.8-15.4L709.6,96.2z"/>
			<path class="st14" d="M707.8,86.4c-1.3,2.8-4.5,7.9-10.9,13.3c-9.5,7.9-9.8,9.2-9.8,9.2c-4.1,7.1-5.5,15-2.1,18.6
				c-5.1-2.8-3.9-11.8,0.7-19.8c0,0,0.3-1.2,9.8-9.2c9.5-7.9,11.8-15.4,11.8-15.4L707.8,86.4z"/>
			<path class="st5" d="M707.3,83.2c0,0-2.3,7.5-11.8,15.4s-9.8,9.2-9.8,9.2c-5.2,8.8-6,19,1.2,20.5c0,0,6.3,2.9,10.5-8
				s12.1-24,12.1-24L707.3,83.2z"/>
			<path class="st17" d="M700.3,102.7c0,0-4.8-6-11.8-6.2c-5.1,2.9-8.3,11.4-5.6,17.3c1.5-5.5,8.7-2.7,13.2,3"/>
			<path class="st5" d="M700.3,102.7c0,0-4.8-6-11.8-6.2c-5.1,2.9-8.3,11.4-5.6,17.3c1.5-5.5,8.7-2.7,13.2,3"/>
			<polyline class="st11" points="690.8,98 695.5,93.8 691,93.8 690.1,90.4 687.5,92.6 684.6,91 685.2,96.9 			"/>
			<path class="st19" d="M681.9,101.7c-0.5,3.9,1.7,5.9,4.6,6.2c2.9,0.3,5.5-2.5,5.8-5.6c0.3-3.1-1.8-5.5-4.6-5.8
				C684.8,96.2,682.3,98.5,681.9,101.7z"/>
			<path class="st8" d="M692.3,102.3c-0.3,3.1-3,5.9-5.8,5.6c-2.4-0.3-4.4-1.8-4.6-4.6c0.8,1,2.1,1.5,3.5,1.7
				c2.9,0.3,5.5-2.5,5.8-5.6c0-0.4,0-0.7,0-1C692,99.3,692.4,100.7,692.3,102.3z"/>
			<path class="st14" d="M692,100c-0.8-1-2-1.6-3.4-1.7c-0.6-0.1-1.2,0-1.7,0.1c0,1.2-1.2,1.8-2.3,1.3c-1,0.9-1.6,2.2-1.8,3.7
				c-0.1,1.1-0.1,2.1,0.2,2.9c-1-1-1.4-2.6-1.2-4.6c0.4-3.1,2.9-5.5,5.8-5.1C689.7,96.8,691.4,98.1,692,100z"/>
			<path class="st20" d="M681.9,101.7c-0.5,3.9,1.7,5.9,4.6,6.2c2.9,0.3,5.5-2.5,5.8-5.6c0.3-3.1-1.8-5.5-4.6-5.8
				C684.8,96.2,682.3,98.5,681.9,101.7z"/>
			<polyline class="st20" points="690.8,98 695.5,93.8 691,93.8 690.1,90.4 687.5,92.6 684.6,91 685.2,96.9 			"/>
			<path class="st27" d="M781.1,128.3c0,0-4.6,2.2-8.6-4.1c-0.7-1.1-1.3-2.3-2-3.9c-4.3-11-12.1-24-12.1-24l2.3-13
				c0,0,2.3,7.5,11.8,15.4c9.5,7.9,9.8,9.2,9.8,9.2c0.7,1.3,1.4,2.6,1.9,3.9C787.6,119.3,787.3,127,781.1,128.3z"/>
			<path class="st5" d="M760.8,83.2c0,0,2.3,7.5,11.8,15.4s9.8,9.2,9.8,9.2c5.2,8.8,6,19-1.2,20.5c0,0-6.3,2.9-10.5-8
				s-12.1-24-12.1-24L760.8,83.2z"/>
			<path class="st17" d="M767.7,102.7c0,0,4.8-6,11.8-6.2c5.1,2.9,8.3,11.4,5.6,17.3c-1.5-5.5-8.7-2.7-13.2,3"/>
			<path class="st5" d="M767.7,102.7c0,0,4.8-6,11.8-6.2c5.1,2.9,8.3,11.4,5.6,17.3c-1.5-5.5-8.7-2.7-13.2,3"/>
			<path class="st27" d="M732.2,151.9l-1.7,14.7h-21.3c0,0,1.6-2.8,4.2-4.8c0,0-1-7-2.1-11.8c-0.2-1.1-0.5-2.1-0.7-2.9L732.2,151.9z
				"/>
			<path class="st27" d="M758.7,166.5h-21.3l-1.5-12.7l-0.2-2l21.6-4.8c-1.2,4.1-2.8,14.7-2.8,14.7
				C757.1,163.7,758.7,166.5,758.7,166.5z"/>
			<path class="st17" d="M717.1,57.9l-4.3,7.3l-4.1,7c-13.3-6-11.5-26,0.9-27.1c0.6-0.1,1.1,0.3,1.3,0.8c0.1,0.2,0.1,0.3,0,0.5
				C709.7,53.1,712.7,56.1,717.1,57.9z"/>
			<path class="st8" d="M717.1,57.9l-4.3,7.3c-1.9,1.7-3.4,2.9-3.4,2.9s1-5.7-1.2-11.2c-2.2-5.5,2-11.1,2-11.1l0.6,0.1
				c0.1,0.2,0.1,0.3,0,0.5C709.7,53.1,712.7,56.1,717.1,57.9z"/>
			<path class="st14" d="M707.7,71.7c-12.2-6.5-10.1-25.5,1.9-26.6c0.7-0.1,1.3,0.5,1.3,1.1C699.8,47.6,697.6,64.5,707.7,71.7z"/>
			<path class="st17" d="M750.9,57.9c4.4-1.8,7.4-4.7,6.2-11.5c-0.1-0.8,0.5-1.4,1.3-1.4c12.3,1.1,14.2,21.2,0.9,27.1"/>
			<path class="st8" d="M759.2,72.2l-1.8-3.1c8.7-6,8.5-19.1,1.5-23.9C770.8,46.8,772.4,66.3,759.2,72.2z"/>
			<path class="st14" d="M752.5,58.6l7.7,13.1c-0.3,0.2-0.6,0.3-0.9,0.5l-8.4-14.3c4.4-1.8,7.4-4.7,6.2-11.5
				c-0.1-0.8,0.5-1.4,1.3-1.4c1.6,0.1,3,0.6,4.2,1.3c-0.8-0.3-1.7-0.5-2.6-0.5c-0.8-0.1-1.4,0.6-1.3,1.4
				C759.9,53.9,756.9,56.8,752.5,58.6z"/>
			<path class="st27" d="M742.4,53.7c10.8,3.2,16.3,10.8,17.3,22.3c0.6,8.8,3.4,17,7.1,25.1c11.2,21.9,6.6,50.8-32.9,50.8h0
				c-39.5,0-44.1-28.8-32.9-50.8c3.7-8,6.6-16.3,7.1-25.1c1-11.5,6.5-19.1,17.3-22.3c2.1-3,5-6.1,8.5-9.1l-3,8.3c0,0,6.5-3.8,12.1-5
				l-5.6,5.3c0,0,4.2-1.6,6.9-1.3L742.4,53.7z"/>
			<path class="st8" d="M734,151.9L734,151.9c-14.3,0-24.1-3.8-30.1-9.6c4.9,2,11,3.4,18.3,4h0c40.8,3.6,47.9-23.2,38.2-44.9
				c-3.2-7.9-5.4-16-5.2-24.3c-0.1-9.9-3.4-18.5-12-23c10.4,3.3,15.7,10.9,16.7,22.1c0.6,8.8,3.4,17,7.1,25.1
				C778.1,123,773.5,151.9,734,151.9z"/>
			<path class="st14" d="M732.7,48.2c-2.4,2.3-4.4,4.6-6,6.9c-10.8,3.2-16.3,10.8-17.3,22.3c-0.6,8.8-3.4,17-7.1,25.1
				c-6.5,12.8-7.7,28,0.4,38.4c-9.3-10.4-8.3-26.3-1.5-39.7c3.7-8,6.6-16.3,7.1-25.1c1-11.5,6.5-19.1,17.3-22.3c2.1-3,5-6.1,8.5-9.1
				L732.7,48.2z"/>
			<path class="st14" d="M740.5,50.4c-4.4,1.6-8.3,3.9-8.3,3.9l0.9-2.5c2.4-1.2,6.4-3.1,10.1-3.9L740.5,50.4z"/>
			<path class="st14" d="M744.4,51.9l-1.7,1.6c-2,0.4-4,1.1-4.1,1.1l2.6-2.4C742.3,51.9,743.4,51.8,744.4,51.9z"/>
			<g>
				<circle class="st10" cx="733.9" cy="80.4" r="18.2"/>
				<path class="st8" d="M751.6,80c0,10.1-8.2,18.2-18.2,18.2c-9.1,0-16.6-6.7-18-15.4c2.1,7.2,8.7,12.4,16.6,12.4
					c9.6,0,17.3-7.7,17.3-17.3c0-5.7-2.8-10.8-7-13.9C747.8,67.1,751.6,73.1,751.6,80z"/>
				<circle class="st5" cx="733.9" cy="80.4" r="18.2"/>
				<path class="st6" d="M744.5,80.4c0,5.9-4.8,10.7-10.7,10.7c-5.9,0-10.7-4.8-10.7-10.7s4.8-10.7,10.7-10.7c1.9,0,3.7,0.5,5.2,1.4
					c-0.2,0-0.4,0-0.6,0c-2,0-3.7,1.6-3.7,3.7c0,2,1.6,3.7,3.7,3.7c2,0,3.7-1.6,3.7-3.7c0-0.5-0.1-0.9-0.2-1.3
					C743.6,75.3,744.5,77.8,744.5,80.4z"/>
			</g>
			<path class="st6" d="M720.6,104.3c0,17.8,26.5,17.8,26.5,0C738.7,106.4,728.3,106.5,720.6,104.3z"/>
			<path class="st10" d="M729.4,105.8l0.2,1.6c0.2,1.5,1.5,2.6,3,2.6c0.8,0,1.6,0,2.3,0c1.5,0,2.7-1.2,3-2.6l0.2-1.6"/>
			<path class="st28" d="M742.1,115c-4.6-3.7-12.1-3.7-16.5,0C731.1,118.6,736.6,118.6,742.1,115z"/>
			<path class="st20" d="M720.6,104.3c0,17.8,26.5,17.8,26.5,0C738.7,106.4,728.3,106.5,720.6,104.3z"/>
			<path class="st5" d="M717.1,57.9c-4.4-1.8-7.4-4.7-6.2-11.5c0.1-0.8-0.5-1.4-1.3-1.4c-12.3,1.1-14.2,21.2-0.9,27.1"/>
			<path class="st5" d="M732.2,151.9l-1.7,14.7h-21.3c0,0,1.6-2.8,4.2-4.8c0,0-1.6-10.6-2.8-14.7"/>
			<path class="st5" d="M742.4,53.7c10.8,3.2,16.3,10.8,17.3,22.3c0.6,8.8,3.4,17,7.1,25.1c11.2,21.9,6.6,50.8-32.9,50.8h0
				c-39.5,0-44.1-28.8-32.9-50.8c3.7-8,6.6-16.3,7.1-25.1c1-11.5,6.5-19.1,17.3-22.3c2.1-3,5-6.1,8.5-9.1l-3,8.3c0,0,6.5-3.8,12.1-5
				l-5.6,5.3c0,0,4.2-1.6,6.9-1.3L742.4,53.7z"/>
			<path class="st5" d="M750.9,57.9c4.4-1.8,7.4-4.7,6.2-11.5c-0.1-0.8,0.5-1.4,1.3-1.4c12.3,1.1,14.2,21.2,0.9,27.1"/>
			<path class="st5" d="M735.7,151.9l1.7,14.7h21.3c0,0-1.6-2.8-4.2-4.8c0,0,1.6-10.6,2.8-14.7"/>
			<path class="st8" d="M732.2,151.9l-1.7,14.7h-21c1.3-0.3,2.8-0.4,4.5-0.4c15.6,0.2,15.9-10,9.3-11c-6.6-1-11.9-5-12.1-5.2
				c-0.2-1.1-0.5-2.1-0.7-2.9C717.1,150.2,724.3,151.8,732.2,151.9z"/>
			<path class="st29" d="M735.8,150.9c-0.1,0-0.1,0-0.1,0S735.8,150.9,735.8,150.9z"/>
			<path class="st8" d="M749.8,162.1c0.1-1.5,3.1-8.3-1.8-7.9c-4.9,0.4-11.4,0.4-11.4,0.4l-0.6-0.7l-0.2-2c8-0.1,15.2-1.6,21.6-4.8
				c-1.2,4.1-2.8,14.7-2.8,14.7c2.6,2,4.2,4.8,4.2,4.8h-18.2c0.4-0.4,1.2-0.7,2.8-0.6C750.8,166.1,749.8,163.6,749.8,162.1z"/>
			<polyline class="st11" points="777.3,98 772.5,93.8 777.1,93.8 777.9,90.4 780.5,92.6 783.4,91 782.9,96.9 			"/>
			<path class="st19" d="M786.2,101.7c0.5,3.9-1.7,5.9-4.6,6.2c-2.9,0.3-5.5-2.5-5.8-5.6c-0.3-3.1,1.8-5.5,4.6-5.8
				C783.3,96.2,785.8,98.5,786.2,101.7z"/>
			<path class="st8" d="M781.6,107.9c-2.5,0.3-4.8-1.8-5.6-4.4c1.1,1.1,2.4,1.7,3.9,1.6c2.9-0.3,5.1-2.3,4.6-6.2
				c0-0.3-0.1-0.6-0.2-0.9c1,0.9,1.7,2.2,1.9,3.8C786.7,105.6,784.5,107.6,781.6,107.9z"/>
			<path class="st14" d="M784.6,98.2c-0.8-0.4-1.8-0.7-2.8-0.6c-0.7,0.1-1.4,0.3-2,0.6c0.5,1.2-1,2.6-2.1,2.1
				c-0.5,0.9-0.7,1.9-0.6,3.1c0.2,1.5,0.8,2.9,1.8,3.9c-1.7-0.9-3-2.9-3.2-5c-0.3-3.1,1.8-5.5,4.6-5.8C782,96.4,783.5,97,784.6,98.2
				z"/>
			<path class="st20" d="M786.2,101.7c0.5,3.9-1.7,5.9-4.6,6.2c-2.9,0.3-5.5-2.5-5.8-5.6c-0.3-3.1,1.8-5.5,4.6-5.8
				C783.3,96.2,785.8,98.5,786.2,101.7z"/>
			<polyline class="st20" points="777.3,98 772.5,93.8 777.1,93.8 777.9,90.4 780.5,92.6 783.4,91 782.9,96.9 			"/>
			<path class="st8" d="M697.3,99.9c-0.5,9.5-4.7,11.6-10.4,10.5c0,0,8.4,5.4,8.4,5.3c-0.1-0.1,4.4-13.7,4.4-13.7"/>
			<path class="st8" d="M695.6,116.1c0,0-0.3,4.7-0.4,8.5c-3.9,5.6-8.3,3.6-8.3,3.6c-1.7-0.4-3-1.2-3.9-2.5
				c4.9,2.4,10.1-1.5,8.5-5.3c-1.6-4-1-7.7-1-7.7l1.7,1.1L695.6,116.1z"/>
			<path class="st8" d="M781.1,128.3c0,0-4.6,2.2-8.6-4.1v-5.5c5,8.5,13.7,3.6,8.3-7.8l3,0.3c0,0,0.2,0.2,0.5,0.4
				C787.6,119.3,787.3,127,781.1,128.3z"/>
		</g>
		<g>
			
				<rect x="962.4" y="51.7" transform="matrix(0.9022 0.4313 -0.4313 0.9022 133.4423 -407.2311)" class="st30" width="4.5" height="77.8"/>
			
				<rect x="962.4" y="51.7" transform="matrix(0.9022 0.4313 -0.4313 0.9022 133.4423 -407.2311)" class="st20" width="4.5" height="77.8"/>
			<path class="st15" d="M985.4,38.8c2.6-4.3,5.3-4.2,3.4,1.4"/>
			<g>
				<path class="st30" d="M996.2,86.1l-1.9-1.8l-0.7-0.2l-3.7-1.2l-52.6-17.2c-1.6-0.5-3.3,0.1-4.1,1.6l-29.6,51.5l-63,25.7v5.5
					l60.6,22.1l61.9-23.8c2-0.8,3.6-2.2,4.6-4l29.2-54.6C997.4,88.4,997.2,86.9,996.2,86.1z M942.7,74.9L983.1,89l-5.7,10.9
					l-39.2-16.3L942.7,74.9z M931.7,87.4l43.3,17.4l-6,11.6l-42-19.4L931.7,87.4z M924,102.8l42.4,18.4l-2.5,4.9l-2.5,4.9l-3.1-1.5
					l-38.5-18.2L924,102.8z"/>
				<path class="st8" d="M993.6,84v1.6c0,0-27,53.4-29.3,55.5c-2.3,2.1-3.5,1.5-3.5,1.5l-15.2-5.9l-29.6-8.2l3.9-6.8
					c13.9,10.2,26.8,13.4,38.5,7.9l3.1,1.5l2.5-4.9c9.7-7.3,18.4-21.4,26-43.3L993.6,84z"/>
				<path class="st8" d="M961,143l-0.6,1.6l-58.5,20.8l-1,0.2l-58.7-20.9l1.6-2c31.1,11.9,61.9,16.3,92.3,7.1c0.1,0,0.1,0,0.2-0.1
					c2.3-0.7,4.5-1.5,6.8-2.3l-3.5,1.2c9.8-3.6,12.7-7.6,2.7-12.3h1.6l12.7,5.1h0c0.2-0.1,0.3-0.2,0.5-0.3L961,143z"/>
				<path class="st5" d="M901.1,172l61.9-23.8c2-0.8,3.6-2.2,4.6-4l29.2-54.6c0.6-1.1,0.4-2.6-0.6-3.5l-1.9-1.8l-57.1-18.7
					c-1.6-0.5-3.3,0.1-4.1,1.6l-29.5,51.5l-63,25.7v5.5L901.1,172z"/>
				<line class="st5" x1="962.4" y1="143.2" x2="930.3" y2="131"/>
				<line class="st5" x1="942.4" y1="74.8" x2="938.6" y2="83.7"/>
				<polygon class="st5" points="924,102.8 966.4,121.2 961.3,131 919.8,111.3 				"/>
				<polygon class="st5" points="974.9,104.8 968.9,116.4 926.9,97 931.7,87.4 				"/>
				<polygon class="st5" points="983.1,89 977.5,99.9 934.3,82.2 938.6,73.5 				"/>
				<path class="st30" d="M964,147.7l0.2,5.8c0.1,2.4-2.1,4.1-4.4,3.5l-11.4-3.2l5.9-2.3l5.6,1.5l-0.2-3.6l2.9-1.1"/>
				<path class="st30" d="M840.9,162.8l47.9,17.3c2.9,1,6.1-0.3,7.3-3.2l2.5-5.9l-5.4-2l-2.6,5.9l-46.1-16.2l2.3-6.6l-5-1.8
					l-2.9,8.3C838.3,160.3,839.2,162.2,840.9,162.8z"/>
				<path class="st5" d="M840.5,144.4l60.7,21.2l59.3-21.4c1.9-0.7,3.4-2,4.3-3.8l29.5-56.2"/>
				<path class="st5" d="M964,147.7l0.2,5.8c0.1,2.4-2.1,4.1-4.4,3.5l-11.4-3.2l5.9-2.3l5.6,1.5l-0.2-3.6l2.9-1.1"/>
				<path class="st5" d="M840.9,162.8l47.9,17.3c2.9,1,6.1-0.3,7.3-3.2l2.5-5.9l-5.4-2l-2.6,5.9l-46.1-16.2l2.3-6.6l-5-1.8l-2.9,8.3
					C838.3,160.3,839.2,162.2,840.9,162.8z"/>
				<line class="st5" x1="901.1" y1="165.7" x2="901.1" y2="172"/>
				<path class="st31" d="M939.5,148.7c-1,0.4-2.1,0.7-3.2,1.1L939.5,148.7z"/>
				<polyline class="st8" points="941.9,75.1 939,73.7 937.5,77.3 937.2,79.1 939.2,81 940.5,79 				"/>
				<path class="st8" d="M840.5,155.9c0,0,3.2-2.5,4.6,1l1.7-4.8l-5-1.8"/>
				<path class="st8" d="M891.4,173.1c2.7-0.8,4.1,0.4,4.3,3.6l1.9-5.3l-4.5-1.4"/>
				<path class="st8" d="M957.8,152.4c0,0-1.8,1.6-0.8,3.8l-6.9-2.5l5.1-1.7"/>
			</g>
			<g>
				<path class="st32" d="M856.6,113.4c3.4,1.8,6.4,1.4,6.4,1.4s3-3.1,3-3.5s8.2-12,0.7-10.7C859,102,856.1,98,856.1,98l-1,11.8
					l1.9,2.8L856.6,113.4z"/>
				<path class="st32" d="M950.7,123.9c0.2,1.4,0.4,4.2-0.7,7.5l-1.5-1.2c0,0-1.3,4.3-8.5,7l0.2-2.1c0,0-3.6,2.6-9.3,1.9
					c-0.9-0.1-1.5-0.8-1.6-2v0c-0.8-5.8,7.7-22.4,16.5-24.5c0,0,5.1,3.2,6.3,12.5h-1.6C950.5,123,950.6,123.3,950.7,123.9z"/>
				<path class="st8" d="M950,131.4l-1.5-1.2c0,0-1.3,4.3-8.5,7l0.2-2.1c0,0-3.6,2.6-9.3,1.9c-0.9-0.1-1.5-0.8-1.6-2v0
					c1.3-7.8,4.1-7.6,4.1-7.6l4.1-2.3l3.2,0.3c-2.5,6.4,4.9,1.1,4.9,1.1v1.4c3.1-2.5,3-6.3,3-6.3l1.4,2.2l0.7,0
					C950.9,125.3,951.1,128.2,950,131.4z"/>
				<path class="st5" d="M856.1,98c0,0,2.9,4,10.5,2.7c7.6-1.3-0.7,10.3-0.7,10.7s-3,3.5-3,3.5s-3,0.3-6.4-1.4"/>
				<path class="st5" d="M945.9,110.5c0,0,5.1,3.2,6.3,12.5h-1.6c0,0,1,3.8-0.5,8.4l-1.5-1.2c0,0-1.3,4.3-8.5,7l0.2-2.1
					c0,0-3.6,2.6-9.3,1.9C925.2,136.3,935.3,113.1,945.9,110.5z"/>
				<path class="st32" d="M945.8,109.7c0,0.2,0.5,5.3,0.5,5.3l-2.4-0.9c0,4.5-3.1,10.9-3.1,10.9l-3-0.5c0,0-2.1,5.9-4.6,9.8
					c-2.4,3.9-3.7,8.2-3.7,8.2c-1.5-2.6-4.2-2.4-4.2-2.4c-2.3,3.6-5.3,6.5-6.5,11.1c-2.3-1.2-3.2-3.6-3.2-3.6
					c-5.2,3-13.9,3.7-13.9,3.7s-0.9,0.7-4.4,4.1c-3.4,3.4-9,2.6-12.3-2c-0.6-0.9-1-1.7-1.2-2.5c-0.8-3.2,1.5-5.4,1.5-5.4
					c-4.7-2.2-8.5-4.9-8.5-4.9s-3.6,3.4-5.5,5c-1.9,1.6-6.4,2.5-10.1-1c-0.7-0.7-1.4-1.4-1.9-2.1c-2.1-2.9-2.4-5.7-0.8-7.6
					c2-2.4,7.1-6.8,7.1-6.8c-5.3-7.8-2.5-22.5-2.5-22.5l-1.4-1.6c3.9-3.6,7.3-7.4,9.9-11.6l-1.8-1.1c6.1-7.4,12.5-13.8,19.8-18.3
					l-1.5-2.2l4.3-1l-1.2-3.7c5.9,1.1,12.6,1.6,19.7,1.7l-1.3-2.9l10.8,5.3l0.6-5.3l4,5.9c8.1-0.3,11.7,2.3,11.7,2.3l-6.5,2.6
					c3-0.2,7.9,2,7.9,2l-1.4,2.1c4.8,3.3,8,7.1,9.9,11.5c0.1,0.2,0.2,0.4,0.2,0.6l-3.1-0.2c1.7,2,2.7,6.4,3.3,11.1
					c0.7,4.7,3,7.2,3,7.2S945.8,109.9,945.8,109.7z"/>
				<path class="st8" d="M876.7,140.3v0.3c0,0-3.6,3.4-5.5,5c-1.9,1.6-6.4,2.5-10.1-1c-0.7-0.7-1.4-1.4-1.9-2.1
					c0.3,0.2,0.6,0.4,1,0.7c6.6,5.8,6.1-3.5,6.1-3.5l4.1-3.9c0.6-0.5,1.5-0.5,2,0L876.7,140.3z"/>
				<path class="st8" d="M945.8,109.7c0,0.2,0.5,5.3,0.5,5.3l-2.4-0.9c0,4.5-3.1,10.9-3.1,10.9l-3-0.5c0,0-2.1,5.9-4.6,9.8
					c-2.4,3.9-3.7,8.2-3.7,8.2c-1.5-2.6-4.2-2.4-4.2-2.4c-2.3,3.6-5.3,6.5-6.5,11.1c-2.3-1.2-3.2-3.6-3.2-3.6
					c-5.2,3-13.9,3.7-13.9,3.7s-0.9,0.7-4.4,4.1c-3.4,3.4-9,2.6-12.3-2c-0.6-0.9-1-1.7-1.2-2.5c0.2,0.1,0.5,0.3,0.7,0.5
					c5.7,4.9,7.4,0.7,9.3-1.1c1.9-1.8,5.6-7,5.6-7c25.3-1.3,29.2-21.1,33.8-28.6c4.6-7.5,6-10,6-10s4.2,1.7,4.2-4
					c0-5.7-2.7-10.1-2.7-10.1l2.7,0.8c1.7,2,2.7,6.4,3.3,11.1c0.7,4.7,3,7.2,3,7.2S945.8,109.9,945.8,109.7z"/>
				<path class="st4" d="M889.1,72.9l1.5,2.2c-7.2,4.5-13.7,10.9-19.8,18.3l1.8,1.1c-2.6,4.2-6,8-9.9,11.6l1.4,1.6
					c0,0-2.8,14.7,2.5,22.5c0,0-5.1,4.4-7.1,6.8c-1.2,1.5-1.3,3.5-0.4,5.6c-2.3-2.9-2.6-5.9-1-7.9c2-2.4,7.1-6.8,7.1-6.8
					c-5.3-7.8-2.5-22.5-2.5-22.5l-1.4-1.6c3.9-3.6,7.3-7.4,9.9-11.6l-1.8-1.1C875.6,83.8,882,77.4,889.1,72.9z"/>
				<path class="st4" d="M934.3,73.7c-1.9-0.5-4.6-1-8.3-0.9l-4-5.9l-0.6,5.3l-10.8-5.3l1.3,2.9c-7.1-0.1-13.8-0.6-19.7-1.7l1.2,3.7
					l-4.2,0.9l-1.5-2.2l4.3-1l-1.2-3.7c5.9,1.1,12.6,1.6,19.7,1.7l-1.3-2.9l10.8,5.3l0.6-5.3l4,5.9c8.1-0.3,11.7,2.3,11.7,2.3
					L934.3,73.7z"/>
				<path class="st4" d="M934.7,76.3c1.7,0.5,3.1,1.2,3.1,1.2l-0.9,1.3c-1.7-0.6-3.9-1.2-5.6-1.1L934.7,76.3z"/>
				<path class="st4" d="M949.7,109.7c0,0,0,0-0.1,0c-0.1-0.1-0.1-0.2-0.2-0.3C949.6,109.6,949.7,109.7,949.7,109.7z"/>
				<path class="st4" d="M889.2,72.8L889.2,72.8c0,0.1-0.1,0.1-0.1,0.1l0-0.1L889.2,72.8z"/>
				<path class="st5" d="M924.6,70.6l-4-5.9l-0.6,5.3l-10.8-5.3l1.3,2.9c-7.1-0.1-13.8-0.6-19.7-1.7l1.2,3.6l-4.3,1l1.5,2.2
					c-7.2,4.5-13.7,10.9-19.8,18.3l1.8,1.1c-2.6,4.2-6,8-9.9,11.6l1.4,1.6c0,0-2.8,14.7,2.6,22.5c0,0-5.1,4.4-7.1,6.8
					c-2,2.4-1.1,6.2,2.7,9.7c3.8,3.5,8.2,2.6,10.1,1c1.9-1.6,5.5-5,5.5-5s3.8,2.7,8.5,4.9c0,0-3.6,3.3-0.2,7.9s8.9,5.4,12.3,2
					c3.4-3.4,4.4-4.1,4.4-4.1s8.8-0.8,13.9-3.7c0,0,0.9,2.4,3.2,3.6c1.2-4.6,4.2-7.5,6.5-11.1c0,0,2.7-0.2,4.2,2.4
					c0,0,1.2-4.3,3.7-8.2s4.6-9.8,4.6-9.8l3,0.5c0,0,3.1-6.4,3.1-10.9l2.4,0.9c0,0-0.5-5.5-0.5-5.3s4,0,4,0s-2.4-2.4-3-7.2
					c-0.7-4.7-1.6-9.2-3.3-11.1l3.1,0.2c-1.8-4.6-5.1-8.7-10.1-12l1.4-2.1c0,0-4.9-2.2-7.9-2l6.5-2.6
					C936.3,72.9,932.8,70.3,924.6,70.6z"/>
				<ellipse transform="matrix(0.5 -0.866 0.866 0.5 372.9584 816.7)" class="st32" cx="893.8" cy="85.4" rx="10.3" ry="8.5"/>
				<ellipse transform="matrix(0.5 -0.866 0.866 0.5 372.9584 816.7)" class="st20" cx="893.8" cy="85.4" rx="10.3" ry="8.5"/>
				<ellipse transform="matrix(0.5 -0.866 0.866 0.5 375.1074 844.363)" class="st32" cx="918.8" cy="97.3" rx="10.3" ry="8.5"/>
				<ellipse transform="matrix(0.5 -0.866 0.866 0.5 375.1074 844.363)" class="st20" cx="918.8" cy="97.3" rx="10.3" ry="8.5"/>
				<g>
					<path class="st15" d="M901.9,90.8l3.2-5.1c0.6-1,0.3-2.3-0.8-2.8l-15.3-7.6c-1-0.5-2.1-0.3-2.8,0.5c-1.2,1.3-2.9,3.4-4.3,5.3
						c-2.3,3.2-2,9,3,12.6c1.4,1,3,1.8,4.6,2.2C894.1,97.3,899.2,95.1,901.9,90.8z"/>
					<path class="st33" d="M905.1,85.8l-3.2,5.1c-2.7,4.2-7.7,6.4-12.5,5.1c-1.6-0.4-3.1-1.1-4.6-2.2c-1-0.7-1.8-1.5-2.4-2.3
						c0.3,0.3,0.7,0.6,1.1,0.8c1.4,1,3,1.8,4.6,2.2c4.8,1.3,9.9-0.9,12.5-5.1l3.2-5.1c0.3-0.5,0.4-1,0.2-1.5l0.3,0.2
						C905.3,83.5,905.7,84.8,905.1,85.8z"/>
					<path class="st6" d="M901.1,85.4l-0.1,0.1l0,0l-2.2,3.4c-1.5,2.4-4.1,3.8-6.8,3.8c-0.6,0-1.2-0.1-1.8-0.2
						c-0.3-0.1-0.6-0.2-0.9-0.3c-0.8-0.3-1.5-0.7-2.2-1.2c-0.1-0.1-0.2-0.1-0.3-0.2c-0.8-0.6-1.4-1.2-1.8-1.8
						c-0.6-0.9-0.9-1.7-1-2.4c0-0.3-0.1-0.6-0.1-0.9c0-0.9,0.3-1.8,0.7-2.4c1.1-1.6,2.5-3.2,3.5-4.4l4.1,2l3.7,1.8l3,1.5L901.1,85.4
						z"/>
					<path class="st15" d="M940.8,110.1c-0.9,1-2.5,1-3.4,0l-6.7-7.4c-0.2,0.4-0.5,0.7-0.7,1.1c-2.1,3.4-5.8,5.6-9.8,5.7
						c-3.4,0.1-6.8-0.9-9.6-2.6c0,0,0,0,0,0c-0.3-0.2-0.6-0.4-0.8-0.6c-5-3.6-5.3-9.4-3-12.6c1.4-2,3.2-4,4.3-5.3
						c0.7-0.8,1.9-1,2.8-0.5l16.4,8.1c2.3,1.1,4.3,2.8,5.9,4.8l1.8,2.3l3,3.9C941.7,107.9,941.6,109.2,940.8,110.1z"/>
					<path class="st6" d="M928.7,99.1l-1.7,2.7c-1.6,2.5-4.1,4-6.8,4h-0.3c-2,0-3.9-0.4-5.7-1.2c-0.8-0.3-1.5-0.7-2.2-1.2
						c-0.1,0-0.1-0.1-0.2-0.1c-0.9-0.6-1.5-1.3-2-2c-0.5-0.8-0.7-1.6-0.8-2.2c-0.1-0.4-0.1-0.8-0.1-1.2c0-0.8,0.3-1.6,0.7-2.2
						c1.1-1.5,2.4-3.1,3.5-4.4l3.8,1.9l3.7,1.8l3.2,1.6l2.3,1.1L928.7,99.1z"/>
					<path class="st15" d="M885.6,75.3l-1.7-0.6c-0.7-0.2-1.4,0-1.9,0.5l0,0c-0.9,0.9-0.5,2.5,0.7,2.9l0.4,0.1"/>
					<path class="st34" d="M920.6,95.1l-10.8,6.2c-0.5-0.8-0.7-1.6-0.8-2.2c-0.1-0.4-0.1-0.8-0.1-1.2l8-4.6L920.6,95.1z"/>
					<path class="st34" d="M926.1,97.8l-11.9,6.9c-0.8-0.3-1.5-0.7-2.2-1.2l11.8-6.8L926.1,97.8z"/>
					<path class="st34" d="M895.9,82.8L885,89.1c-0.6-0.9-0.9-1.7-1-2.4c0-0.3-0.1-0.6-0.1-0.9l8.3-4.8L895.9,82.8z"/>
					<path class="st20" d="M901.9,90.8l3.2-5.1c0.6-1,0.3-2.3-0.8-2.8l-15.3-7.6c-1-0.5-2.1-0.3-2.8,0.5c-1.2,1.3-2.9,3.4-4.3,5.3
						c-2.3,3.2-2,9,3,12.6c1.4,1,3,1.8,4.6,2.2C894.1,97.3,899.2,95.1,901.9,90.8z"/>
					<path class="st34" d="M901.1,85.4l-0.1,0.1l0,0l-11.7,6.7c-0.8-0.3-1.5-0.7-2.2-1.2l11.8-6.8L901.1,85.4z"/>
					<path class="st35" d="M901.1,85.4l-0.1,0.1l0,0l-2.2,3.4c-1.5,2.4-4.1,3.8-6.8,3.8c-0.6,0-1.2-0.1-1.8-0.2
						c-0.3-0.1-0.6-0.2-0.9-0.3c-0.8-0.3-1.5-0.7-2.2-1.2c-0.1-0.1-0.2-0.1-0.3-0.2c-0.8-0.6-1.4-1.2-1.8-1.8
						c-0.6-0.9-0.9-1.7-1-2.4c0-0.3-0.1-0.6-0.1-0.9c0-0.9,0.3-1.8,0.7-2.4c1.1-1.6,2.5-3.2,3.5-4.4l4.1,2l3.7,1.8l3,1.5L901.1,85.4
						z"/>
					<path class="st20" d="M940.8,110.1L940.8,110.1c-0.9,1-2.5,1-3.4,0l-6.7-7.4c-0.2,0.4-0.5,0.7-0.7,1.1
						c-2.1,3.4-5.8,5.6-9.8,5.7c-3.8,0.1-7.6-1.1-10.4-3.1c-5-3.6-5.3-9.4-3-12.6c1.4-2,3.2-4,4.3-5.3c0.7-0.8,1.9-1,2.8-0.5
						l16.4,8.1c2.3,1.1,4.3,2.8,5.9,4.8l4.8,6.2C941.7,107.9,941.6,109.2,940.8,110.1z"/>
					<path class="st20" d="M885.9,75.3l-2-0.6c-0.7-0.2-1.4,0-1.9,0.5l0,0c-0.9,0.9-0.5,2.5,0.7,2.9l0.4,0.1"/>
					<path class="st15" d="M911.1,88.4c-0.8-2.9-4.2-3.5-5.9-2.8L903,89c3-1.2,5-0.1,5.4,2.5L911.1,88.4z"/>
					<path class="st35" d="M928.7,99.1l-1.7,2.7c-1.6,2.5-4.1,4-6.8,4h-0.3c-2,0-3.9-0.4-5.7-1.2c-0.8-0.3-1.5-0.7-2.2-1.2
						c-0.1,0-0.1-0.1-0.2-0.1c-0.9-0.6-1.5-1.3-2-2c-0.5-0.8-0.7-1.6-0.8-2.2c-0.1-0.4-0.1-0.8-0.1-1.2c0-0.8,0.3-1.6,0.7-2.2
						c1.1-1.5,2.4-3.1,3.5-4.4l3.8,1.9l3.7,1.8l3.2,1.6l2.3,1.1L928.7,99.1z"/>
					<path class="st20" d="M911.1,88.4c-0.8-2.9-4.2-3.5-5.9-2.8L903,89c3-1.2,5-0.1,5.4,2.5L911.1,88.4z"/>
					<path class="st33" d="M940.8,110.1c-0.9,1-2.5,1-3.4,0l-6.7-7.4c-0.2,0.4-0.5,0.7-0.7,1.1c-2.1,3.4-5.8,5.6-9.8,5.7
						c-3.4,0.1-6.8-0.9-9.6-2.6c8.1,3,14.4,1.5,19.1-5.8c0.5-0.9,1.8-0.9,2.5-0.1c1.1,1.4,2.7,3.4,3.9,5c2.1,2.7,3.9,0.9,2.2-2.1
						c-0.1-0.2-0.2-0.4-0.3-0.6l3,3.9C941.7,107.9,941.6,109.2,940.8,110.1z"/>
				</g>
				<g>
					<path class="st36" d="M908.9,128.1c9.7-3.1,9.4-15.4-2.1-19c-6.3-2.3-12-4.7-17.2-8.5c-1.2-0.8-2.4-1.5-3.8-2
						c-9-2.8-13.7,6.9-10,13C883.8,125.5,901.9,130.1,908.9,128.1z"/>
					<path class="st4" d="M914.2,124.5c2.4-4.9-0.2-11.6-8.2-14.1c-6.3-2.3-12-4.7-17.2-8.5c-1.2-0.8-2.4-1.5-3.8-2
						c-4.3-1.3-7.6,0.2-9.5,2.7c1.7-3.3,5.3-5.6,10.3-4c1.4,0.4,2.6,1.1,3.8,2c5.2,3.7,10.9,6.2,17.2,8.5
						C915.5,111.8,917.8,119.5,914.2,124.5z"/>
					<path class="st6" d="M905.2,125c-7.3,0-20.3-4.7-26.3-15c-1-1.7-1-4.1,0-5.9c0.6-1,1.7-2.3,3.9-2.3c0.6,0,1.3,0.1,2,0.3
						c0.8,0.3,1.7,0.7,2.7,1.5c5.9,4.3,12.5,6.9,18.1,8.9l0.2,0.1c4.8,1.5,6.5,4.5,6.5,6.9c0,2.4-1.6,4.4-4.4,5.3
						C907.4,124.8,906.5,125,905.2,125C905.2,125,905.2,125,905.2,125z"/>
					<path class="st15" d="M906,125c-1.4-7.2-19.2-16-26.6-14.2C884.1,118.9,893.1,123.6,906,125z"/>
					<path class="st10" d="M904.6,117.1l0.5-4.8l-5,2.2v-4.1l-5.3,1.8l0.3-4.1l-5.1,1.8l-0.4-4.8l-4.9,1.6l0.5-4.4
						c7.4,4.8,15.6,8.9,24.4,12.2L904.6,117.1z"/>
					<path class="st10" d="M903.4,124.9l-1.7-3.7l-5.1,2.2l-0.9-4.6l-5.1,2l-0.6-5l-4.7,1.3v-4.6l-4.4,0.2
						C880.9,112.8,887.4,122.8,903.4,124.9z"/>
					<path class="st20" d="M908.9,128.1c9.7-3.1,9.4-15.4-2.1-19c-6.3-2.3-12-4.7-17.2-8.5c-1.2-0.8-2.4-1.5-3.8-2
						c-9-2.8-13.7,6.9-10,13C883.8,125.5,901.9,130.1,908.9,128.1z"/>
					<path class="st35" d="M905.2,125c-7.3,0-20.3-4.7-26.3-15c-1-1.7-1-4.1,0-5.9c0.6-1,1.7-2.3,3.9-2.3c0.6,0,1.3,0.1,2,0.3
						c0.8,0.3,1.7,0.7,2.7,1.5c5.9,4.3,12.5,6.9,18.1,8.9l0.2,0.1c4.8,1.5,6.5,4.5,6.5,6.9c0,2.4-1.6,4.4-4.4,5.3
						C907.4,124.8,906.5,125,905.2,125C905.2,125,905.2,125,905.2,125z"/>
					<path class="st35" d="M879.4,110.8c7.3-1.8,25.1,7,26.6,14.2"/>
				</g>
				<g>
					<path class="st6" d="M866.3,127.5c0.3,0.6,0.6,1.2,0.9,1.8c0.3,0.6,0.6,1.2,0.9,1.8c0.7,1.2,1.4,2.3,2.1,3.4
						c-1-0.9-2-1.8-2.9-2.8c-0.5-0.5-0.9-1-1.4-1.5c-0.5-0.5-0.9-1-1.4-1.6c-0.4-0.5-0.3-1.1,0.2-1.5c0.5-0.4,1.1-0.3,1.5,0.2
						C866.2,127.3,866.3,127.4,866.3,127.5z"/>
				</g>
				<g>
					<path class="st6" d="M884.6,144.6l7.1-3.6l-5.9,5.3c-0.4,0.4-1.1,0.4-1.5-0.1c-0.4-0.4-0.4-1.1,0.1-1.5
						C884.5,144.7,884.5,144.6,884.6,144.6z"/>
				</g>
				<g>
					<path class="st6" d="M883.1,147.9c-0.1,0-0.2,0.1-0.3,0.2c-0.1,0.1-0.1,0.2-0.1,0.1l0.1-0.1c0-0.1,0.1-0.2,0.1-0.2
						c0.1-0.2,0.2-0.4,0.3-0.6c0.2-0.4,0.6-0.8,0.9-1.1c0.4-0.3,0.9-0.6,1.4-0.7c0.3-0.1,0.5,0,0.8,0c0.3,0,0.5,0.1,0.7,0.2
						c0.9,0.4,1.5,1,2,1.6c0.5,0.6,1,1.3,1.5,1.9c-0.6-0.5-1.2-1.1-1.8-1.5c-0.6-0.4-1.3-0.8-2-0.9c-0.7-0.1-1.1,0.1-1.4,0.6
						c-0.2,0.3-0.3,0.5-0.4,0.8c-0.1,0.2-0.1,0.3-0.2,0.5l-0.1,0.3l-0.1,0.2c0,0-0.1,0.1-0.2,0.3c-0.1,0.1-0.2,0.2-0.3,0.3
						c-0.5,0.3-1.2,0.1-1.4-0.4S882.6,148.2,883.1,147.9z"/>
				</g>
				<g>
					<path class="st6" d="M856.4,136.6c0.3-0.5,0.7-1,1.2-1.5c0.6-0.4,1.3-0.6,2-0.6c1.3,0.1,2.2,0.7,3,1.4c1.6,1.3,2.9,2.8,4.2,4.4
						c-1.5-1.3-3.1-2.6-4.7-3.5c-0.8-0.4-1.8-0.8-2.4-0.7c-0.3,0.1-0.6,0.2-0.8,0.4c-0.2,0.2-0.4,0.6-0.5,0.9l0,0
						c-0.2,0.6-0.8,0.8-1.4,0.6s-0.8-0.8-0.6-1.4C856.3,136.7,856.4,136.7,856.4,136.6z"/>
				</g>
				<g>
					<path class="st37" d="M851,109.6l-2.9,2.3c-0.4,0.3-0.3,1,0.2,1.2c2.7,1,6,1,8.6,0.2c0.5-0.2,0.6-0.8,0.3-1.2l-2.6-2.6"/>
					<path class="st32" d="M856.9,98.2c-2.2-1.8-6.6-1.9-9.9-0.4l1.1,0.8c0,0-2,1.6-3.1,3.8l1.9-0.7c0,0-1.5,3.2-0.8,6.3l1.1-1
						c0,0,1.3,3.2,6.6,2.6S860.1,100.7,856.9,98.2z"/>
					<path class="st8" d="M853.7,109.7c-3.4,0.4-5.2-0.9-6-1.8c0.9,0.3,2.1,0.4,3.6,0.2c5-0.5,6.2-8.1,3.7-11c0.7,0.2,1.4,0.6,1.9,1
						C860.1,100.7,859,109.1,853.7,109.7z"/>
					<path class="st4" d="M848.5,102c0,0-1.6,2.5-1.6,5.3l-0.9,0.8c-0.5-2.2,0.1-4.5,0.5-5.6L848.5,102z"/>
					<path class="st4" d="M849.1,98.1l1,0.9c0,0-2.2,1.3-3.5,3.4c0.1-0.4,0.3-0.6,0.3-0.6l-1.9,0.7c1.1-2.2,3.1-3.8,3.1-3.8
						l-1.1-0.8c3.3-1.5,7.7-1.4,9.9,0.4c0,0,0.1,0.1,0.1,0.1C854.8,97.3,851.7,97.2,849.1,98.1z"/>
					<path class="st4" d="M846.5,102.5C846.5,102.4,846.6,102.4,846.5,102.5C846.6,102.4,846.5,102.4,846.5,102.5L846.5,102.5z"/>
					<path class="st38" d="M856.9,98.2c-2.2-1.8-6.6-1.9-9.9-0.4l1.1,0.8c0,0-2,1.6-3.1,3.8l1.9-0.7c0,0-1.5,3.2-0.8,6.3l1.1-1
						c0,0,1.3,3.2,6.6,2.6S860.1,100.7,856.9,98.2z"/>
					<circle class="st39" cx="843.8" cy="84.6" r="5.2"/>
					<circle class="st35" cx="843.8" cy="84.6" r="5.2"/>
					<circle class="st40" cx="843.8" cy="84.6" r="3.3"/>
					<circle class="st41" cx="843.8" cy="84.6" r="3.3"/>
					<path class="st37" d="M864.7,85c0,9.8-8.8,13.2-15,10.3c-3.4-1.6-6-5-6-10.3H864.7z"/>
					<path class="st42" d="M864.2,89.1c-3.8-2.1-8.1,2.3-13.7,2.1c-1.8-0.1-3.3-1.6-5.8-2.1C847.1,97.7,860.3,99.2,864.2,89.1z"/>
					<path class="st35" d="M864.2,89.1c-3.8-2.1-8.1,2.3-13.7,2.1c-1.8-0.1-3.3-1.6-5.8-2.1"/>
					<path class="st16" d="M846.7,85.4c0,0-0.2,5,3.1,7c3.3,2,3.3-1,2.3-3.2c-1-2.3-0.5-3.7-0.5-3.7"/>
					<path class="st20" d="M843.8,85c0,15.1,20.9,15.1,20.9,0H843.8z"/>
					<path class="st8" d="M864.7,85c0,9.8-8.8,13.2-15,10.3c0.1,0,0.3,0,0.4-0.1C861.9,93.3,861,85,861,85H864.7z"/>
					<path class="st20" d="M851,109.6l-2.9,2.3c-0.4,0.3-0.3,1,0.2,1.2c2.7,1,6,1,8.6,0.2c0.5-0.2,0.6-0.8,0.3-1.2l-2.6-2.6"/>
				</g>
				<path class="st8" d="M861.9,108.1c0,0-3.6,1.4-4.2-0.9l-2.3,2.6l1.7,2.3l-0.3,1.2l1.1,0.7l4,0.3"/>
			</g>
			<g>
				<path class="st10" d="M961.9,81.4c-4.2,10.7,10.4,16.5,14.6,5.8"/>
				<path class="st8" d="M976.5,87.2c-3.7,9.2-15.1,6.1-15.4-1.8c2.4,4.6,9.4,6,13.2,0.9L976.5,87.2z"/>
				<path class="st15" d="M992.6,92.1c-3.8,11.2-19.8,5.7-16-5.4"/>
				<path class="st8" d="M992.7,92.1c-3.4,10.1-16.8,6.6-16.5-2.4c2.5,5.2,10.3,6.8,14.3,1.6L992.7,92.1z"/>
				<path class="st5" d="M992.6,92.1c-3.8,11.2-19.8,5.7-16-5.4"/>
				<path class="st10" d="M1008.6,94.2c-1.8,11-17.8,8.5-16-2.6"/>
				<path class="st8" d="M1008.6,94.2c-1.7,10.4-15.9,8.7-16.2-0.7c2.5,5.8,11.6,6.6,14.6,0.4L1008.6,94.2z"/>
				<path class="st5" d="M1008.6,94.2c-1.8,11-17.8,8.5-16-2.6"/>
				<path class="st10" d="M933.4,64.4c-6.3,9.3,7.2,18.4,13.5,9.1"/>
				<path class="st8" d="M946.9,73.5c-4.9,7.3-14.4,3.2-15.1-3.5c2.5,3.8,8.3,5.5,12.4,1.6L946.9,73.5z"/>
				<path class="st15" d="M933.7,63.8c-3.2,5.9-15.4,3.8-6.1-12.3"/>
				<path class="st8" d="M933.7,63.8c-2.4,4.5-10.1,4.3-9.5-3.1c1.3,3.8,6.1,3.8,8.5,1L933.7,63.8z"/>
				<path class="st5" d="M933.7,63.8c-3.2,5.9-15.4,3.8-6.1-12.3"/>
				<path class="st15" d="M1008.9,93.6c-1.7,6.5,8.7,13.3,12.9-4.8"/>
				<path class="st8" d="M1021.8,88.7c-3.7,16-12.2,12.6-13,7.1c2.3,3,7.6,3.2,10.9-6.4L1021.8,88.7z"/>
				<path class="st15" d="M946.7,73.9c-4.9,10.7,10.5,17.7,15.4,7"/>
				<path class="st8" d="M962.1,80.9c-4.1,9-15.6,5.5-16.3-2.2c2.9,4.2,9.5,5.5,13.4,0.9L962.1,80.9z"/>
				<path class="st15" d="M1021.8,88.7c-4.5,11.5-41.5,2-67.8-11.4c0,0,0,0,0,0c-16.7-8.5-29.2-18.6-26.3-25.9
					c11.9-15.6,36.3-21.2,59.2-12.1c8.1,3.2,15.1,7.9,20.7,13.5h0C1017.7,63,1023.1,76.1,1021.8,88.7z"/>
				<path class="st4" d="M1018.6,69c-2.4-5.2-5.9-10.2-10.3-14.5h0c-5.6-5.6-12.6-10.3-20.7-13.5c-22.9-9.1-47.3-3.5-59.2,12.1
					c-0.6,1.5-0.5,3.1,0,4.7c-1.2-2.3-1.5-4.4-0.8-6.4c11.9-15.6,36.3-21.2,59.2-12.1c8.1,3.2,15.1,7.9,20.7,13.5h0
					C1012.4,57.7,1016.1,63.2,1018.6,69z"/>
				<g>
					<path class="st10" d="M986.1,39.1c0,0-14.1,14.8-24.1,42.1l14.4,5.7c11.4-26.8,11.2-47.2,11.2-47.2"/>
					<path class="st43" d="M946.7,51.4c-4.3-7.8,5-12.4,15.3-8.9c11.7,10.9,24.9,16.8,39.7,17.6c0,0,7.4,8.7,0.5,14.7
						S959.9,70.9,946.7,51.4z"/>
				</g>
				<path class="st10" d="M947.2,73.2c10.3-19.5,24.6-30.2,38.5-34.3c-19.6-0.9-35.9,6.3-51.9,25.4"/>
				<path class="st10" d="M993,91.3c5.9-21.3,2.7-38.9-4.6-51.3c14.9,12.8,21.9,29.2,20.5,54"/>
				<path class="st5" d="M1021.8,88.7c-7.4,18.8-101.6-18.5-94.1-37.3c11.9-15.6,36.3-21.2,59.2-12.1
					C1009.8,48.4,1023.8,69.1,1021.8,88.7z"/>
				<g>
					<path class="st20" d="M986.1,39.1c0,0-14.1,14.8-24.1,42.1"/>
					<path class="st20" d="M976.4,86.9c11.4-26.8,11.2-47.2,11.2-47.2"/>
				</g>
				<path class="st20" d="M947.2,73.2c10.3-19.5,24.6-30.2,38.5-34.3c-19.6-0.9-35.9,6.3-51.9,25.4"/>
				<path class="st20" d="M993,91.3c5.9-21.3,2.7-38.9-4.6-51.3c14.9,12.8,21.9,29.2,20.5,54"/>
				<path class="st5" d="M1008.9,93.6c-1.7,6.5,8.7,13.3,12.9-4.8"/>
				<path class="st5" d="M933.4,64.4c-6.3,9.3,7.2,18.4,13.5,9.1"/>
				<path class="st5" d="M946.7,73.9c-4.9,10.7,10.5,17.7,15.4,7"/>
				<path class="st5" d="M961.9,81.4c-4.2,10.7,10.4,16.5,14.6,5.8"/>
				<path class="st8" d="M1021.8,88.7c-4.5,11.5-41.5,2-67.8-11.4c0,0,0,0,0,0c44.1,14.6,76.8,19.5,53.6-24.5h0
					C1017.7,63,1023.1,76.1,1021.8,88.7z"/>
			</g>
			<path class="st20" d="M985.4,38.8c2.6-4.3,5.3-4.2,3.4,1.4"/>
		</g>
		<g>
			<path class="st44" d="M427,215.2c0,4.4-1.3,8.4-3.6,11.8c-9.3,5.5-25.1,5.6-34.7,0c-1-1.4-1.8-3-2.4-4.6
				c-0.8-2.3-1.3-4.7-1.3-7.2c0-11.6,9.4-21,21-21c5.4,0,10.3,2,14.1,5.4l0,0C424.3,203.5,427,209.1,427,215.2z"/>
			<path class="st14" d="M421.5,201c-3.6-3-8.3-4.8-13.3-4.8c-11.6,0-21,9.4-21,21c0,3.8,1,7.4,2.8,10.5c-0.4-0.2-0.9-0.5-1.3-0.7
				c-2.3-3.4-3.6-7.4-3.6-11.8c0-11.6,9.4-21,21-21C412.1,194.2,417.6,196.9,421.5,201z"/>
			<path class="st5" d="M427,215.2c0,4.4-1.3,8.4-3.6,11.8c-9.3,5.5-25.1,5.6-34.7,0c-2.3-3.4-3.6-7.4-3.6-11.8c0-11.6,9.4-21,21-21
				C417.6,194.2,427,203.6,427,215.2z"/>
			<path class="st8" d="M427,215.2c0,4.4-1.3,8.4-3.6,11.8c-9.3,5.5-25.1,5.6-34.7,0c-1-1.4-1.8-3-2.4-4.6
				c14.8,13.7,44-2.8,33.8-22.8C424.3,203.5,427,209.1,427,215.2z"/>
			<g>
				<polygon class="st45" points="409.7,198.4 404.2,217.5 414.2,214.7 				"/>
				<polygon class="st46" points="404.2,217.5 406.7,208.8 414.2,214.7 				"/>
				<polygon class="st47" points="409.7,198.4 404.2,217.5 397.2,209.8 				"/>
				<polygon class="st48" points="404.2,217.5 406.7,208.8 397.2,209.8 				"/>
				<polygon class="st49" points="413.7,216.6 403.7,219.3 401.8,226.1 				"/>
				<polygon class="st47" points="396.7,211.8 403.7,219.3 401.8,226.1 				"/>
			</g>
		</g>
	</g>
	<g class="st0">
		<path class="st27" d="M530.2,119.9H120.8c-4.6,0-8.2-3.7-8.2-8.2V50.3c0-4.6,3.7-8.2,8.2-8.2h409.5c4.6,0,8.2,3.7,8.2,8.2v61.3
			C538.5,116.2,534.8,119.9,530.2,119.9z"/>
		<g>
			<path class="st10" d="M155.6,74.9l1.1,17.7l-6.8,0.6l-0.4-9.1l-1.4,6.2l-6.1,0.9l-2.5-6.4l0.9,7.6l-6.3,1.3l0.9-18.8l6.2-0.8
				l3.4,10.7l4.1-10.4L155.6,74.9z"/>
			<path class="st10" d="M170.1,93.7c-3,0-5.6-0.9-7.7-2.8c-2.1-1.8-3.2-4-3.2-6.6c0-2.6,1.1-4.8,3.2-6.6c2.1-1.8,4.7-2.8,7.7-2.8
				c3,0,5.6,0.9,7.7,2.8c2.1,1.8,3.2,4,3.2,6.6c0,2.6-1.1,4.8-3.2,6.6C175.7,92.8,173.1,93.7,170.1,93.7z M172.7,86.6
				c0.9-0.8,1.4-1.7,1.4-2.8c0-1.1-0.5-2.1-1.4-2.8c-0.9-0.8-2-1.2-3.3-1.2c-1.3,0-2.4,0.4-3.3,1.2c-0.9,0.8-1.4,1.7-1.4,2.8
				c0,1.1,0.5,2.1,1.4,2.8c0.9,0.8,2,1.2,3.3,1.2C170.7,87.8,171.8,87.4,172.7,86.6z"/>
			<path class="st10" d="M190.2,84.3l1.3,7.7l-6.7,1.7l-1.4-17.6l6.7-1.2l6.6,8.8l0.1-8.8l8.3-0.9l-3,19.6l-5.3,0.8L190.2,84.3z"/>
			<path class="st10" d="M211.8,86.3c-3.2-0.5-4.7-2.5-4.3-6c0.4-3.6,4.5-5.7,12.4-6.3l1.1,6.1c-3.9-0.1-6,0.4-6.3,1.4
				c-0.3,1,1.2,1.6,4.5,1.8c3.3,0.2,4.9,2.2,4.8,6c-0.1,3.9-4.4,5.9-13,6.2l-2.4-6.3c4.4,0.5,6.8,0.3,7.3-0.7
				C216.4,87.4,215,86.7,211.8,86.3z"/>
			<path class="st10" d="M234.9,80.6l0.7,11.4l-7.3,1.9l1.2-13.7l-5.5-0.5l0.4-5l15.7-0.9l0.6,7.3L234.9,80.6z"/>
			<path class="st10" d="M256.7,72.5l0.3,7.1l-8.3,0.9l0.1,1.6l5.5-0.5l0.5,4.9l-5.7,0.4l0.1,1.3l8.1-0.6l1.2,6.1l-16,0.6l1.6-19.4
				L256.7,72.5z"/>
			<path class="st10" d="M268.4,92.6l-7.5,1l1.6-20c11.5,0.9,17.5,3.2,17.9,6.9c0.4,3.8-1.6,6.3-5.9,7.8l5.4,2.9l-5.5,4.9l-6.3-7.8
				L268.4,92.6z M267.5,79.3l0.2,3.6c4.5,0,6.7-0.4,6.7-1.3S272.1,80,267.5,79.3z"/>
			<path class="st10" d="M296.9,86.3c-3.2-0.5-4.7-2.5-4.3-6c0.4-3.6,4.5-5.7,12.4-6.3l1.1,6.1c-3.9-0.1-6,0.4-6.3,1.4
				c-0.3,1,1.2,1.6,4.5,1.8c3.3,0.2,4.9,2.2,4.8,6c-0.1,3.9-4.4,5.9-13,6.2l-2.4-6.3c4.4,0.5,6.8,0.3,7.3-0.7
				C301.5,87.4,300.1,86.7,296.9,86.3z"/>
			<path class="st10" d="M320,80.6l0.7,11.4l-7.3,1.9l1.2-13.7l-5.5-0.5l0.4-5l15.7-0.9l0.6,7.3L320,80.6z"/>
			<path class="st10" d="M331.2,91l-0.9,2.7l-5.3-3.2l6.6-15.6l5-0.3l7.9,16.1l-6.3,3l-1.4-3.8L331.2,91z M335.8,85.1l-1.5-4.9
				l-1.8,5.4L335.8,85.1z"/>
			<path class="st10" d="M351.9,81.8l4.3-8.1l8.2,1.2l-7.7,9.4l7.1,4.5l-6.2,4.9l-5.4-6.7l0.9,5.5l-6.3,1.2V74.9l4.3,0.5L351.9,81.8
				z"/>
			<path class="st10" d="M373.2,75l1.4,18.1l-7.6,1.4l0.3-19.1L373.2,75z"/>
			<path class="st10" d="M383.7,84.3l1.3,7.7l-6.7,1.7L377,76.1l6.7-1.2l6.6,8.8l0.1-8.8l8.3-0.9l-3,19.6l-5.3,0.8L383.7,84.3z"/>
			<path class="st10" d="M422,93.5l-7.6,1.9l0.1-2.1c-1,0.3-2,0.4-3.1,0.4c-3,0-5.6-0.9-7.7-2.8c-2.1-1.8-3.2-4-3.2-6.6
				c0-2.6,1.1-4.8,3.2-6.6c2.1-1.8,4.7-2.8,7.7-2.8c3,0,5.6,0.9,7.7,2.8c1.1,0.9,1.9,1.9,2.4,3.1l-6.4,1.6c-0.2-0.6-0.6-1.1-1.1-1.6
				c-0.9-0.8-2-1.2-3.3-1.2c-1.3,0-2.4,0.4-3.3,1.2c-0.9,0.8-1.4,1.7-1.4,2.8c0,1.1,0.5,2.1,1.4,2.8c0.9,0.8,2,1.2,3.3,1.2
				c1.3,0,2.4-0.4,3.3-1.2c0.5-0.4,0.9-0.9,1.1-1.4l6.1-0.3L422,93.5z"/>
			<path class="st10" d="M440.3,88.3l1.1,4l-7,1.4l-1.3-18c11.9-1.9,18.2,0,18.8,5.9C451.8,86.1,448,88.3,440.3,88.3z M438.5,80.3
				l0.8,2.6c4.8,0,7.1-0.6,6.8-1.9C445.7,79.8,443.2,79.5,438.5,80.3z"/>
			<path class="st10" d="M465.2,93.7c-3,0-5.6-0.9-7.7-2.8c-2.1-1.8-3.2-4-3.2-6.6c0-2.6,1.1-4.8,3.2-6.6c2.1-1.8,4.7-2.8,7.7-2.8
				c3,0,5.6,0.9,7.7,2.8c2.1,1.8,3.2,4,3.2,6.6c0,2.6-1.1,4.8-3.2,6.6C470.8,92.8,468.3,93.7,465.2,93.7z M467.8,86.6
				c0.9-0.8,1.4-1.7,1.4-2.8c0-1.1-0.5-2.1-1.4-2.8c-0.9-0.8-2-1.2-3.3-1.2c-1.3,0-2.4,0.4-3.3,1.2c-0.9,0.8-1.4,1.7-1.4,2.8
				c0,1.1,0.5,2.1,1.4,2.8c0.9,0.8,2,1.2,3.3,1.2C465.8,87.8,466.9,87.4,467.8,86.6z"/>
			<path class="st10" d="M489.6,93.7c-3,0-5.6-0.9-7.7-2.8c-2.1-1.8-3.2-4-3.2-6.6c0-2.6,1.1-4.8,3.2-6.6c2.1-1.8,4.7-2.8,7.7-2.8
				c3,0,5.6,0.9,7.7,2.8c2.1,1.8,3.2,4,3.2,6.6c0,2.6-1.1,4.8-3.2,6.6C495.2,92.8,492.6,93.7,489.6,93.7z M492.1,86.6
				c0.9-0.8,1.4-1.7,1.4-2.8c0-1.1-0.5-2.1-1.4-2.8c-0.9-0.8-2-1.2-3.3-1.2c-1.3,0-2.4,0.4-3.3,1.2c-0.9,0.8-1.4,1.7-1.4,2.8
				c0,1.1,0.5,2.1,1.4,2.8c0.9,0.8,2,1.2,3.3,1.2C490.1,87.8,491.2,87.4,492.1,86.6z"/>
			<path class="st10" d="M503.9,74.6l6.6,0.3l-2.2,13.3l6.7-1l-1.5,7.2L503,93.7L503.9,74.6z"/>
		</g>
		<path class="st14" d="M538.5,50.3v3.6c0-4.5-3.7-8.2-8.2-8.2H120.8c-4.6,0-8.2,3.7-8.2,8.2v-3.6c0-4.6,3.7-8.2,8.2-8.2h409.5
			C534.8,42.1,538.5,45.8,538.5,50.3z"/>
		<path class="st5" d="M530.2,119.9H120.8c-4.6,0-8.2-3.7-8.2-8.2V50.3c0-4.6,3.7-8.2,8.2-8.2h409.5c4.6,0,8.2,3.7,8.2,8.2v61.3
			C538.5,116.2,534.8,119.9,530.2,119.9z"/>
		<g>
			<g>
				<rect x="154.9" y="119.9" class="st13" width="11.2" height="15.8"/>
				<rect x="154.9" y="119.9" class="st12" width="11.2" height="4.6"/>
				<rect x="154.9" y="119.9" class="st5" width="11.2" height="15.8"/>
			</g>
			<g>
				<rect x="264.9" y="119.9" class="st13" width="11.2" height="15.8"/>
				<rect x="264.9" y="119.9" class="st12" width="11.2" height="4.6"/>
				<rect x="264.9" y="119.9" class="st5" width="11.2" height="15.8"/>
			</g>
			<g>
				<rect x="374.9" y="119.9" class="st13" width="11.2" height="15.8"/>
				<rect x="374.9" y="119.9" class="st12" width="11.2" height="4.6"/>
				<rect x="374.9" y="119.9" class="st5" width="11.2" height="15.8"/>
			</g>
			<g>
				<rect x="484.9" y="119.9" class="st13" width="11.2" height="15.8"/>
				<rect x="484.9" y="119.9" class="st12" width="11.2" height="4.6"/>
				<rect x="484.9" y="119.9" class="st5" width="11.2" height="15.8"/>
			</g>
		</g>
		<g>
			<linearGradient id="SVGID_4_" gradientUnits="userSpaceOnUse" x1="160.2639" y1="88.6022" x2="157.0831" y2="30.4807">
				<stop  offset="0" style="stop-color:#FFFFFF;stop-opacity:0"/>
				<stop  offset="1" style="stop-color:#F1F2F2"/>
			</linearGradient>
			<polyline class="st50" points="150.2,49.2 112.5,92.9 208.5,92.9 170.5,49.2 			"/>
			<path class="st13" d="M165.1,42.1h-9.6c-3,0-5.4,2.4-5.4,5.4v1.8h20.3v-1.8C170.5,44.5,168.1,42.1,165.1,42.1z"/>
			<path class="st5" d="M165.1,42.1h-9.6c-3,0-5.4,2.4-5.4,5.4v1.8h20.3v-1.8C170.5,44.5,168.1,42.1,165.1,42.1z"/>
		</g>
		<g>
			<linearGradient id="SVGID_5_" gradientUnits="userSpaceOnUse" x1="270.2639" y1="88.6022" x2="267.0831" y2="30.4807">
				<stop  offset="0" style="stop-color:#FFFFFF;stop-opacity:0"/>
				<stop  offset="1" style="stop-color:#F1F2F2"/>
			</linearGradient>
			<polyline class="st51" points="260.2,49.2 222.5,92.9 318.5,92.9 280.5,49.2 			"/>
			<path class="st13" d="M275.1,42.1h-9.6c-3,0-5.4,2.4-5.4,5.4v1.8h20.3v-1.8C280.5,44.5,278.1,42.1,275.1,42.1z"/>
			<path class="st5" d="M275.1,42.1h-9.6c-3,0-5.4,2.4-5.4,5.4v1.8h20.3v-1.8C280.5,44.5,278.1,42.1,275.1,42.1z"/>
		</g>
		<g>
			<linearGradient id="SVGID_6_" gradientUnits="userSpaceOnUse" x1="380.2639" y1="88.6022" x2="377.0831" y2="30.4807">
				<stop  offset="0" style="stop-color:#FFFFFF;stop-opacity:0"/>
				<stop  offset="1" style="stop-color:#F1F2F2"/>
			</linearGradient>
			<polyline class="st52" points="370.2,49.2 332.5,92.9 428.5,92.9 390.5,49.2 			"/>
			<path class="st13" d="M385.1,42.1h-9.6c-3,0-5.4,2.4-5.4,5.4v1.8h20.3v-1.8C390.5,44.5,388.1,42.1,385.1,42.1z"/>
			<path class="st5" d="M385.1,42.1h-9.6c-3,0-5.4,2.4-5.4,5.4v1.8h20.3v-1.8C390.5,44.5,388.1,42.1,385.1,42.1z"/>
		</g>
		<g>
			<linearGradient id="SVGID_7_" gradientUnits="userSpaceOnUse" x1="490.2639" y1="88.6022" x2="487.0831" y2="30.4807">
				<stop  offset="0" style="stop-color:#FFFFFF;stop-opacity:0"/>
				<stop  offset="1" style="stop-color:#F1F2F2"/>
			</linearGradient>
			<polyline class="st53" points="480.2,49.2 442.5,92.9 538.5,92.9 500.5,49.2 			"/>
			<path class="st13" d="M495.1,42.1h-9.6c-3,0-5.4,2.4-5.4,5.4v1.8h20.3v-1.8C500.5,44.5,498.1,42.1,495.1,42.1z"/>
			<path class="st5" d="M495.1,42.1h-9.6c-3,0-5.4,2.4-5.4,5.4v1.8h20.3v-1.8C500.5,44.5,498.1,42.1,495.1,42.1z"/>
		</g>
	</g>
	<rect y="-52.1" class="st54" width="1187" height="300"/>
	<g class="st0">
		<g>
			<path class="st10" d="M83.3,35.6c-0.6,1.6-2.2,2.6-4,2.6H19.7c-13.9-0.5-6.2-11.6,3.6-6.9C22.4,23.1,32.2,21,36.4,24
				C35.6,13.2,42.6,8.7,49.2,9.7h0c6.2,0.9,12,6.6,10.3,16.4c1.1-1.8,2.6-2.6,4.1-2.5h0c2.9,0.1,5.4,3.5,3.7,7.7
				c3.7-1.6,6.9-2.2,9.5-2C81.7,29.7,84.3,32.7,83.3,35.6z"/>
			<path class="st12" d="M59.5,26.1c-0.3,0.7-0.6,1.1-1,1.4c-1,0.9-2.5-0.3-2-1.6c3.3-8.1-3.3-15.6-7.3-16.2
				C55.5,10.5,61.3,16.3,59.5,26.1z"/>
			<path class="st12" d="M67.2,31.4c-2,2.4-5.5,1.8-5.5,1.8c3.9-0.6,5.3-7.5,1.9-9.5C66.5,23.8,69,27.1,67.2,31.4z"/>
			<path class="st12" d="M83.3,35.6c-0.6,1.6-2.2,2.6-4,2.6H63.1c10.4-0.3,15.9-2.8,13.6-8.9C81.7,29.7,84.3,32.7,83.3,35.6z"/>
		</g>
		<g>
			<path class="st10" d="M854.3,45.9c-0.6,1.6-2.2,2.6-4,2.6h-59.6c-13.9-0.5-6.2-11.6,3.6-6.9c-0.9-8.2,8.9-10.4,13.1-7.4
				c-0.8-10.8,6.2-15.2,12.8-14.3h0c6.2,0.9,12,6.6,10.3,16.4c1.1-1.8,2.6-2.6,4.1-2.5h0c2.9,0.1,5.4,3.5,3.7,7.7
				c3.7-1.6,6.9-2.2,9.5-2C852.7,40,855.3,43,854.3,45.9z"/>
			<path class="st12" d="M830.5,36.4c-0.3,0.7-0.6,1.1-1,1.4c-1,0.9-2.5-0.3-2-1.6c3.3-8.1-3.3-15.6-7.3-16.2
				C826.4,20.8,832.2,26.6,830.5,36.4z"/>
			<path class="st12" d="M838.2,41.6c-2,2.4-5.5,1.8-5.5,1.8c3.9-0.6,5.3-7.5,1.9-9.5C837.4,34.1,839.9,37.4,838.2,41.6z"/>
			<path class="st12" d="M854.3,45.9c-0.6,1.6-2.2,2.6-4,2.6h-16.2c10.4-0.3,15.9-2.8,13.6-8.9C852.7,40,855.3,43,854.3,45.9z"/>
		</g>
		<g>
			<path class="st10" d="M1129.3,51.7c-0.6,1.6-2.2,2.6-4,2.6h-59.6c-13.9-0.5-6.2-11.6,3.6-6.9c-0.9-8.2,8.9-10.4,13.1-7.4
				c-0.8-10.8,6.2-15.2,12.8-14.3h0c6.2,0.9,12,6.6,10.3,16.4c1.1-1.8,2.6-2.6,4.1-2.5h0c2.9,0.1,5.4,3.5,3.7,7.7
				c3.7-1.6,6.9-2.2,9.5-2C1127.7,45.8,1130.3,48.8,1129.3,51.7z"/>
			<path class="st12" d="M1105.5,42.2c-0.3,0.7-0.6,1.1-1,1.4c-1,0.9-2.5-0.3-2-1.6c3.3-8.1-3.3-15.6-7.3-16.2
				C1101.4,26.6,1107.2,32.4,1105.5,42.2z"/>
			<path class="st12" d="M1113.2,47.5c-2,2.4-5.5,1.8-5.5,1.8c3.9-0.6,5.3-7.5,1.9-9.5C1112.4,39.9,1114.9,43.2,1113.2,47.5z"/>
			<path class="st12" d="M1129.3,51.7c-0.6,1.6-2.2,2.6-4,2.6h-16.2c10.4-0.3,15.9-2.8,13.6-8.9
				C1127.7,45.8,1130.3,48.8,1129.3,51.7z"/>
		</g>
		<g>
			<path class="st10" d="M104.9,34.1c0,2.3-2.8,4.1-6.9,4.1c-4.1,0-6.5-2.5-6.5-4.7c0-2.3,2.4-3.5,6.5-3.5
				C102.1,30,104.9,31.8,104.9,34.1z"/>
			<path class="st12" d="M104.9,34.1c0,2.3-2.8,4.1-6.9,4.1c-2.7,0-4.7-1.1-5.7-2.4c0.9,0.3,1.9,0.6,3.1,0.6c4.1,0,6.9-1.9,6.9-4.1
				c0-0.6-0.2-1.1-0.5-1.6C103.7,31.4,104.9,32.6,104.9,34.1z"/>
		</g>
		<g>
			<path class="st10" d="M1050.7,49.9c0,2.3-2.8,4.1-6.9,4.1s-6.5-2.5-6.5-4.7c0-2.3,2.4-3.5,6.5-3.5S1050.7,47.6,1050.7,49.9z"/>
			<path class="st12" d="M1050.7,49.9c0,2.3-2.8,4.1-6.9,4.1c-2.7,0-4.7-1.1-5.7-2.4c0.9,0.3,1.9,0.6,3.1,0.6c4.1,0,6.9-1.9,6.9-4.1
				c0-0.6-0.2-1.1-0.5-1.6C1049.5,47.1,1050.7,48.4,1050.7,49.9z"/>
		</g>
	</g>
</g>
</svg>
